<svg width="371" height="108" viewBox="0 0 371 108" fill="none" xmlns="http://www.w3.org/2000/svg">
<g filter="url(#filter0_d_639_2)">
<rect x="5" width="351" height="88" rx="20" fill="#BE0412"/>
</g>
<g clip-path="url(#clip0_639_2)">
<path d="M42.5289 12C42.8554 12.0984 43.176 12.1906 43.4965 12.2951C44.6657 12.6841 45.6827 13.4413 46.4003 14.4572C47.1179 15.473 47.4988 16.6947 47.4879 17.9453C47.4879 22.335 47.4879 26.7248 47.4879 31.1084V61.1851H50.3908V42.7776C50.3908 40.7733 51.6003 39.5683 53.5597 39.5621H60.079V30.4998C60.079 27.3027 60.079 24.1057 60.079 20.9025C60.0699 20.5062 60.14 20.1122 60.2852 19.7444C60.4303 19.3765 60.6475 19.0424 60.9234 18.7624C61.1994 18.4825 61.5285 18.2624 61.8906 18.1156C62.2528 17.9688 62.6405 17.8983 63.0302 17.9084H78.4032C78.7987 17.8945 79.1927 17.9637 79.5606 18.1117C79.9285 18.2596 80.2626 18.483 80.5418 18.768C80.821 19.053 81.0394 19.3935 81.1834 19.7681C81.3274 20.1428 81.3938 20.5436 81.3787 20.9455C81.3787 26.7248 81.3787 32.5061 81.3787 38.2894C81.3787 38.6952 81.3303 39.101 81.3 39.5621H82.1346C84.1303 39.5621 86.126 39.5621 88.1217 39.5621C88.5117 39.5519 88.8997 39.6226 89.2619 39.7699C89.6242 39.9172 89.9531 40.1379 90.2287 40.4186C90.5043 40.6994 90.7208 41.0342 90.8649 41.4028C91.009 41.7714 91.0777 42.1659 91.0669 42.5624C91.0669 48.3826 91.0669 54.2049 91.0669 60.0293C91.0669 60.3982 91.0185 60.7609 90.9883 61.1482C91.333 61.2343 91.708 61.3019 92.0708 61.4188C92.455 61.5537 92.8065 61.7705 93.1017 62.0546C93.3968 62.3388 93.6289 62.6838 93.7823 63.0665L94.0121 66.657C93.4073 68.5014 92.1373 69.233 90.2928 69.1162C89.5792 69.0609 88.8535 69.1162 88.152 69.1162C87.4565 71.5263 86.7852 72.6207 85.4305 73.6659C84.6479 74.243 83.7628 74.6605 82.824 74.8955C82.4634 74.9962 82.0913 75.0479 81.7173 75.0492H81.1126C80.7827 75.0423 80.4544 75.0011 80.1328 74.9262C79.2453 74.7729 78.3993 74.4322 77.6493 73.926C76.8993 73.4198 76.262 72.7594 75.7786 71.9874C75.2908 71.0836 74.8645 70.1469 74.5025 69.1839H60.9801C60.8461 70.1594 60.4996 71.0922 59.9661 71.9143C59.4325 72.7365 58.7253 73.4273 57.8958 73.9364C57.209 74.3038 56.4878 74.6004 55.7429 74.8217C55.3062 74.9708 54.8488 75.0476 54.3882 75.0492H54.2128C53.817 75.042 53.4225 75.0009 53.0336 74.9262C51.516 74.6359 50.1417 73.8267 49.1389 72.633C48.3077 71.6374 47.7599 70.4299 47.5544 69.1408H45.1354C42.8192 69.1408 41.7124 68.028 41.7124 65.6917V19.0335C41.7124 18.1113 41.5189 17.9084 40.6239 17.9084H35.181C34.8993 17.9134 34.6178 17.8907 34.3404 17.8407C33.7896 17.7242 33.2806 17.4571 32.8682 17.0682C32.4557 16.6792 32.1555 16.1832 32 15.6336V14.3424C32.1661 13.7911 32.4623 13.2893 32.8629 12.8811C33.2634 12.4728 33.7562 12.1703 34.2981 12H42.5289ZM66.8584 19.8758H63.381C62.3106 19.8758 62.0203 20.1709 62.0203 21.253C62.0203 26.8928 62.0203 32.5307 62.0203 38.1665C62.0203 39.2793 62.3045 39.5621 63.4233 39.5621H78.0585C79.1652 39.5621 79.4434 39.2732 79.4434 38.1419C79.4434 32.5225 79.4434 26.9072 79.4434 21.296C79.4434 21.1115 79.5099 20.8718 79.4434 20.7488C79.2318 20.4414 78.9596 19.9495 78.6814 19.9311C77.3449 19.8512 76.0023 19.8942 74.6295 19.8942V24.3824C74.6295 25.4767 74.3392 25.778 73.2809 25.778C71.5876 25.778 69.8943 25.778 68.2009 25.778C67.1849 25.778 66.8826 25.4706 66.8826 24.4192L66.8584 19.8758ZM57.1762 41.5111H53.7109C52.6284 41.5111 52.3381 41.8062 52.3381 42.8821C52.3381 48.522 52.3381 54.1578 52.3381 59.7895C52.3381 60.9146 52.6223 61.1974 53.7411 61.1974H68.3763C69.483 61.1974 69.7673 60.9146 69.7673 59.7895V42.962C69.7824 42.7779 69.7824 42.5928 69.7673 42.4087C69.7599 42.1882 69.6713 41.9785 69.5189 41.8213C69.3665 41.6641 69.1616 41.5709 68.9448 41.5603C67.6264 41.5172 66.302 41.5603 64.9413 41.5603V46.2267C64.9413 47.1059 64.5966 47.4563 63.7318 47.4563H58.4703C57.5209 47.4563 57.2003 47.1243 57.2003 46.1652L57.1762 41.5111ZM84.2875 41.5111C84.2875 43.1403 84.2875 44.6958 84.2875 46.2513C84.2875 47.026 83.9307 47.4133 83.1929 47.4133C81.3424 47.4133 79.4878 47.4133 77.6291 47.4133C77.4825 47.4323 77.3336 47.417 77.1937 47.3684C77.0538 47.3199 76.9267 47.2394 76.8222 47.1331C76.7177 47.0269 76.6385 46.8977 76.5907 46.7555C76.543 46.6133 76.5279 46.4618 76.5466 46.3128C76.5466 44.9171 76.5466 43.5277 76.5466 42.132C76.5466 41.9353 76.5466 41.7386 76.5164 41.5172H73.0148C71.9988 41.5172 71.7025 41.8308 71.7025 42.8883V59.7956C71.7025 60.9208 71.9807 61.2036 73.0934 61.2036H87.7286C88.8414 61.2036 89.1256 60.9208 89.1256 59.7956C89.1256 54.7337 89.1256 49.6717 89.1256 44.6097C89.1256 43.9334 89.1256 43.2571 89.1256 42.5809C89.14 42.4405 89.124 42.2986 89.0789 42.1651C89.0339 42.0317 88.9607 41.9098 88.8646 41.8079C88.7685 41.7061 88.6517 41.6268 88.5223 41.5756C88.393 41.5243 88.2542 41.5023 88.1157 41.5111C86.8699 41.5111 85.618 41.5111 84.2875 41.5111V41.5111ZM43.6658 24.825V61.1851H45.5224V24.825H43.6658ZM60.9801 67.0935H74.6779C74.9131 65.6406 75.5726 64.2932 76.5708 63.2263H59.063C60.0757 64.286 60.7447 65.6356 60.9801 67.0935ZM86.2228 68.1571C86.2323 67.1852 85.9583 66.2322 85.4354 65.4185C84.9125 64.6047 84.1642 63.9667 83.2849 63.585C82.4056 63.2033 81.4348 63.095 80.4951 63.2738C79.5553 63.4526 78.6887 63.9104 78.0047 64.5895C77.3207 65.2686 76.8499 66.1385 76.6518 67.0894C76.4537 68.0403 76.5372 69.0295 76.8918 69.9322C77.2463 70.8349 77.8559 71.6105 78.6437 72.1613C79.4315 72.712 80.3622 73.013 81.3182 73.0264C81.955 73.0354 82.5874 72.9164 83.1789 72.6763C83.7704 72.4362 84.3095 72.0797 84.7652 71.6273C85.2209 71.1749 85.5842 70.6355 85.8343 70.04C86.0845 69.4445 86.2165 68.8046 86.2228 68.1571ZM49.4292 68.0833C49.4292 69.0543 49.7119 70.0035 50.2417 70.8114C50.7715 71.6193 51.5246 72.2497 52.4062 72.6232C53.2877 72.9967 54.2583 73.0966 55.1957 72.9103C56.133 72.7239 56.9951 72.2597 57.6734 71.5762C58.3516 70.8926 58.8157 70.0202 59.0072 69.069C59.1986 68.1178 59.1088 67.1302 58.7491 66.2307C58.3894 65.3313 57.7759 64.5602 56.9859 64.0146C56.1958 63.469 55.2646 63.1733 54.3096 63.1648C53.6707 63.1591 53.037 63.2822 52.4451 63.5268C51.8533 63.7714 51.3149 64.1328 50.8612 64.5901C50.4074 65.0474 50.0472 65.5915 49.8015 66.1911C49.5557 66.7907 49.4292 67.4338 49.4292 68.0833V68.0833ZM45.5587 22.7961C45.5587 21.2345 45.5587 19.7221 45.5587 18.1727C45.5668 17.9059 45.5567 17.6389 45.5285 17.3735C45.4235 16.4868 45.0176 15.6651 44.3806 15.05C43.7436 14.435 42.9155 14.0652 42.039 14.0043C39.6623 13.9182 37.2796 13.9674 34.9028 14.0043C34.7777 14.001 34.6532 14.0232 34.5367 14.0697C34.4202 14.1161 34.3139 14.1857 34.2243 14.2746C34.1347 14.3634 34.0635 14.4696 34.0149 14.5868C33.9663 14.7041 33.9412 14.83 33.9413 14.9573C33.9444 15.2166 34.0476 15.4643 34.2285 15.6471C34.4095 15.8299 34.6538 15.9332 34.9089 15.9348C35.0722 15.9348 35.2355 15.9348 35.3927 15.9348C37.207 15.9348 39.0636 15.9348 40.9021 15.9348C41.2614 15.9246 41.619 15.9891 41.9529 16.1242C42.2869 16.2593 42.5902 16.4623 42.8444 16.7207C43.0986 16.9791 43.2982 17.2875 43.4311 17.627C43.5641 17.9665 43.6274 18.33 43.6174 18.6953C43.6174 19.7221 43.6174 20.7488 43.6174 21.7694V22.7838L45.5587 22.7961ZM43.6235 63.214C43.6235 64.2346 43.6235 65.2122 43.6235 66.1897C43.6117 66.4098 43.6846 66.626 43.8269 66.7924C43.9691 66.9588 44.1694 67.0623 44.3855 67.0812C45.4438 67.1427 46.5021 67.0812 47.4637 67.0812C47.683 66.3702 47.9415 65.6723 48.2378 64.9908C48.5851 64.3709 48.9668 63.7716 49.3808 63.1956L43.6235 63.214ZM86.1321 63.214C87.1715 64.2851 87.8582 65.6578 88.0975 67.1427C89.1317 67.1427 90.1356 67.1427 91.1213 67.1427C91.2393 67.1435 91.3563 67.1203 91.4653 67.0744C91.5744 67.0285 91.6732 66.9609 91.7561 66.8755C91.839 66.7901 91.9042 66.6887 91.9478 66.5772C91.9915 66.4658 92.0128 66.3465 92.0103 66.2266C92.0466 65.5303 92.0466 64.8325 92.0103 64.1362C92.012 64.0163 91.9898 63.8973 91.9449 63.7864C91.8999 63.6755 91.8333 63.575 91.7491 63.491C91.6648 63.4071 91.5646 63.3414 91.4546 63.298C91.3447 63.2546 91.2271 63.2344 91.1092 63.2386C89.5066 63.1771 87.898 63.1894 86.1321 63.1894V63.214ZM68.8359 19.9004V23.7614H72.6338V19.9004H68.8359ZM62.9577 41.5787H59.1598V45.4336H62.9577V41.5787ZM82.31 41.5787H78.5242V45.4397H82.3221L82.31 41.5787Z" fill="white"/>
<path d="M75.5791 37.5885C75.2343 37.5885 74.8896 37.5885 74.551 37.5885C74.3012 37.5773 74.0659 37.4665 73.8961 37.28C73.7263 37.0935 73.6356 36.8465 73.6438 36.5925C73.6373 36.3435 73.7276 36.1018 73.8951 35.92C74.0627 35.7381 74.294 35.6307 74.5389 35.6211C75.2222 35.5842 75.9117 35.5904 76.595 35.6211C76.7174 35.6243 76.8379 35.652 76.9497 35.7025C77.0615 35.7531 77.1624 35.8255 77.2466 35.9157C77.3309 36.0059 77.3968 36.1121 77.4406 36.2283C77.4845 36.3444 77.5054 36.4682 77.5022 36.5925C77.5029 36.8411 77.411 37.0808 77.2449 37.2633C77.0789 37.4458 76.851 37.5576 76.6071 37.5762H75.5791V37.5885Z" fill="white"/>
<path d="M65.8666 59.2421C65.5461 59.2421 65.2195 59.2421 64.899 59.2421C64.6456 59.2421 64.4025 59.1398 64.2233 58.9576C64.0442 58.7754 63.9435 58.5284 63.9435 58.2707C63.9435 58.0131 64.0442 57.766 64.2233 57.5838C64.4025 57.4017 64.6456 57.2993 64.899 57.2993C65.5824 57.2993 66.2718 57.2993 66.9552 57.2993C67.2011 57.3058 67.4346 57.4109 67.6046 57.5918C67.7745 57.7726 67.8672 58.0145 67.8623 58.2646C67.8674 58.5138 67.7767 58.7553 67.6097 58.9377C67.4426 59.1202 67.2122 59.2294 66.9673 59.2421C66.5621 59.2667 66.1992 59.2421 65.8666 59.2421Z" fill="white"/>
<path d="M85.2552 59.2421C84.9105 59.2421 84.5658 59.2421 84.2271 59.2421C83.9827 59.2295 83.7526 59.1214 83.5847 58.9404C83.4168 58.7594 83.3241 58.5195 83.326 58.2707C83.3195 58.0206 83.4106 57.7781 83.5794 57.596C83.7483 57.414 83.9811 57.3074 84.2271 57.2993C84.9105 57.2993 85.5999 57.2993 86.2833 57.2993C86.5287 57.3089 86.7606 57.4161 86.9292 57.5978C87.0977 57.7794 87.1893 58.0211 87.1844 58.2707C87.1878 58.5199 87.0956 58.7607 86.9274 58.942C86.7592 59.1233 86.5282 59.231 86.2833 59.2421C85.9446 59.2667 85.5999 59.2421 85.2552 59.2421Z" fill="white"/>
<path d="M81.3908 65.1567C81.9664 65.158 82.5287 65.3333 83.0062 65.6602C83.4836 65.9872 83.8547 66.4511 84.0721 66.9929C84.2896 67.5348 84.3437 68.1302 84.2275 68.7033C84.1114 69.2765 83.8302 69.8017 83.4198 70.212C83.0093 70.6223 82.4881 70.8994 81.9224 71.0078C81.3567 71.1163 80.7721 71.0513 80.2428 70.8212C79.7135 70.591 79.2635 70.2061 78.95 69.7153C78.6364 69.2245 78.4735 68.65 78.4819 68.0648C78.4977 67.2901 78.8107 66.5523 79.3542 66.0089C79.8977 65.4656 80.6285 65.1598 81.3908 65.1567V65.1567ZM81.3908 67.1303C81.2009 67.1315 81.0155 67.1899 80.8582 67.298C80.7009 67.4062 80.5786 67.5593 80.5067 67.738C80.4349 67.9167 80.4167 68.1131 80.4545 68.3023C80.4923 68.4915 80.5843 68.6651 80.719 68.8012C80.8537 68.9373 81.0251 69.0298 81.2114 69.067C81.3978 69.1043 81.5908 69.0846 81.7662 69.0104C81.9415 68.9362 82.0914 68.8109 82.1967 68.6503C82.3021 68.4897 82.3584 68.3009 82.3584 68.1078C82.3552 67.8464 82.2504 67.5968 82.0668 67.4137C81.8833 67.2305 81.6359 67.1286 81.3787 67.1303H81.3908Z" fill="white"/>
<path d="M57.1761 68.1266C57.1725 68.7113 56.998 69.2817 56.675 69.7655C56.3519 70.2492 55.8948 70.6245 55.3616 70.8437C54.8284 71.0629 54.2432 71.1162 53.6802 70.9967C53.1172 70.8772 52.6018 70.5904 52.1994 70.1727C51.7969 69.7549 51.5257 69.225 51.4199 68.6503C51.3142 68.0756 51.3788 67.4818 51.6056 66.9445C51.8323 66.4071 52.2109 65.9504 52.6934 65.6321C53.1759 65.3139 53.7405 65.1485 54.3156 65.1571C55.0798 65.1731 55.8073 65.4931 56.3421 66.0483C56.8769 66.6034 57.1763 67.3496 57.1761 68.1266V68.1266ZM55.2348 68.0897C55.2324 67.8947 55.1729 67.7048 55.0641 67.5441C54.9552 67.3835 54.8018 67.2594 54.6234 67.1876C54.445 67.1159 54.2496 67.0996 54.0621 67.141C53.8746 67.1824 53.7034 67.2795 53.5703 67.42C53.4372 67.5605 53.3482 67.7381 53.3146 67.9301C53.281 68.1222 53.3044 68.32 53.3817 68.4986C53.459 68.6771 53.5867 68.8283 53.7487 68.9328C53.9107 69.0373 54.0996 69.0906 54.2914 69.0857C54.5454 69.0777 54.7863 68.969 54.9626 68.7829C55.1388 68.5968 55.2365 68.3481 55.2348 68.0897V68.0897Z" fill="white"/>
</g>
<path d="M132.5 33.1172V58H127.39V33.1172H132.5ZM157.554 33.1172V58H152.427L142.429 41.3203V58H137.302V33.1172H142.429L152.444 49.814V33.1172H157.554ZM170.986 52.8047L176.848 33.1172H182.556L173.892 58H170.132L170.986 52.8047ZM165.586 33.1172L171.431 52.8047L172.319 58H168.525L159.912 33.1172H165.586ZM201.577 54.001V58H188.333V54.001H201.577ZM190.007 33.1172V58H184.88V33.1172H190.007ZM199.851 43.2515V47.1479H188.333V43.2515H199.851ZM201.56 33.1172V37.1333H188.333V33.1172H201.56ZM224.819 33.1172V58H219.692L209.695 41.3203V58H204.568V33.1172H209.695L219.709 49.814V33.1172H224.819ZM239.893 33.1172V58H234.783V33.1172H239.893ZM247.549 33.1172V37.1333H227.246V33.1172H247.549ZM270.432 44.9775V46.1567C270.432 48.048 270.176 49.7456 269.663 51.2495C269.15 52.7534 268.427 54.0352 267.493 55.0947C266.558 56.1429 265.442 56.9461 264.143 57.5044C262.856 58.0627 261.426 58.3418 259.854 58.3418C258.293 58.3418 256.863 58.0627 255.564 57.5044C254.277 56.9461 253.16 56.1429 252.214 55.0947C251.269 54.0352 250.534 52.7534 250.01 51.2495C249.497 49.7456 249.241 48.048 249.241 46.1567V44.9775C249.241 43.0749 249.497 41.3773 250.01 39.8848C250.522 38.3809 251.246 37.0991 252.18 36.0396C253.126 34.98 254.242 34.1711 255.53 33.6128C256.829 33.0545 258.258 32.7754 259.819 32.7754C261.392 32.7754 262.821 33.0545 264.109 33.6128C265.408 34.1711 266.524 34.98 267.458 36.0396C268.404 37.0991 269.133 38.3809 269.646 39.8848C270.17 41.3773 270.432 43.0749 270.432 44.9775ZM265.254 46.1567V44.9434C265.254 43.6217 265.134 42.4596 264.895 41.457C264.656 40.4544 264.303 39.6113 263.835 38.9277C263.368 38.2441 262.799 37.7314 262.126 37.3896C261.454 37.0365 260.685 36.8599 259.819 36.8599C258.953 36.8599 258.184 37.0365 257.512 37.3896C256.851 37.7314 256.287 38.2441 255.82 38.9277C255.365 39.6113 255.017 40.4544 254.778 41.457C254.539 42.4596 254.419 43.6217 254.419 44.9434V46.1567C254.419 47.467 254.539 48.6291 254.778 49.6431C255.017 50.6457 255.37 51.4945 255.837 52.1895C256.305 52.873 256.874 53.3914 257.546 53.7446C258.219 54.0978 258.988 54.2744 259.854 54.2744C260.719 54.2744 261.488 54.0978 262.161 53.7446C262.833 53.3914 263.397 52.873 263.853 52.1895C264.308 51.4945 264.656 50.6457 264.895 49.6431C265.134 48.6291 265.254 47.467 265.254 46.1567ZM274.124 33.1172H283.403C285.306 33.1172 286.941 33.402 288.308 33.9717C289.687 34.5413 290.746 35.3844 291.487 36.501C292.227 37.6175 292.598 38.9904 292.598 40.6196C292.598 41.9526 292.37 43.0977 291.914 44.0547C291.47 45.0003 290.837 45.7922 290.017 46.4302C289.208 47.0568 288.257 47.5581 287.163 47.9341L285.54 48.7886H277.473L277.439 44.7896H283.438C284.338 44.7896 285.084 44.63 285.676 44.311C286.269 43.992 286.713 43.5477 287.009 42.978C287.317 42.4084 287.471 41.7476 287.471 40.9956C287.471 40.1981 287.323 39.5088 287.026 38.9277C286.73 38.3467 286.28 37.9023 285.676 37.5947C285.072 37.2871 284.315 37.1333 283.403 37.1333H279.25V58H274.124V33.1172ZM288.035 58L282.361 46.9087L287.778 46.8745L293.521 57.7607V58H288.035ZM299.143 33.1172L304.338 44.4648L309.534 33.1172H315.122L306.936 48.9424V58H301.741V48.9424L293.538 33.1172H299.143Z" fill="white"/>
<defs>
<filter id="filter0_d_639_2" x="0" y="0" width="371" height="108" filterUnits="userSpaceOnUse" color-interpolation-filters="sRGB">
<feFlood flood-opacity="0" result="BackgroundImageFix"/>
<feColorMatrix in="SourceAlpha" type="matrix" values="0 0 0 0 0 0 0 0 0 0 0 0 0 0 0 0 0 0 127 0" result="hardAlpha"/>
<feOffset dx="5" dy="10"/>
<feGaussianBlur stdDeviation="5"/>
<feComposite in2="hardAlpha" operator="out"/>
<feColorMatrix type="matrix" values="0 0 0 0 0 0 0 0 0 0 0 0 0 0 0 0 0 0 0.15 0"/>
<feBlend mode="normal" in2="BackgroundImageFix" result="effect1_dropShadow_639_2"/>
<feBlend mode="normal" in="SourceGraphic" in2="effect1_dropShadow_639_2" result="shape"/>
</filter>
<clipPath id="clip0_639_2">
<rect width="62" height="63" fill="white" transform="translate(32 12)"/>
</clipPath>
</defs>
</svg>
