<svg width="371" height="108" viewBox="0 0 371 108" fill="none" xmlns="http://www.w3.org/2000/svg">
<g filter="url(#filter0_d_375_413)">
<rect x="5" width="351" height="88" rx="20" fill="#BE0412"/>
</g>
<g clip-path="url(#clip0_375_413)">
<path d="M42.5289 12C42.8554 12.0984 43.176 12.1906 43.4965 12.2951C44.6657 12.6841 45.6827 13.4413 46.4003 14.4572C47.1179 15.473 47.4988 16.6947 47.4879 17.9453C47.4879 22.335 47.4879 26.7248 47.4879 31.1084V61.1851H50.3908V42.7776C50.3908 40.7733 51.6003 39.5683 53.5597 39.5621H60.079V30.4998C60.079 27.3027 60.079 24.1057 60.079 20.9025C60.0699 20.5062 60.14 20.1122 60.2852 19.7444C60.4303 19.3765 60.6475 19.0424 60.9234 18.7624C61.1994 18.4825 61.5285 18.2624 61.8906 18.1156C62.2528 17.9688 62.6405 17.8983 63.0302 17.9084H78.4032C78.7987 17.8945 79.1927 17.9637 79.5606 18.1117C79.9285 18.2596 80.2626 18.483 80.5418 18.768C80.821 19.053 81.0394 19.3935 81.1834 19.7681C81.3274 20.1428 81.3938 20.5436 81.3787 20.9455C81.3787 26.7248 81.3787 32.5061 81.3787 38.2894C81.3787 38.6952 81.3303 39.101 81.3 39.5621H82.1346C84.1303 39.5621 86.126 39.5621 88.1217 39.5621C88.5117 39.5519 88.8997 39.6226 89.2619 39.7699C89.6242 39.9172 89.9531 40.1379 90.2287 40.4186C90.5043 40.6994 90.7208 41.0342 90.8649 41.4028C91.009 41.7714 91.0777 42.1659 91.0669 42.5624C91.0669 48.3826 91.0669 54.2049 91.0669 60.0293C91.0669 60.3982 91.0185 60.7609 90.9883 61.1482C91.333 61.2343 91.708 61.3019 92.0708 61.4188C92.455 61.5537 92.8065 61.7705 93.1017 62.0546C93.3968 62.3388 93.6289 62.6838 93.7823 63.0665L94.0121 66.657C93.4073 68.5014 92.1373 69.233 90.2928 69.1162C89.5792 69.0609 88.8535 69.1162 88.152 69.1162C87.4565 71.5263 86.7852 72.6207 85.4305 73.6659C84.6479 74.243 83.7628 74.6605 82.824 74.8955C82.4634 74.9962 82.0913 75.0479 81.7173 75.0492H81.1126C80.7827 75.0423 80.4544 75.0011 80.1328 74.9262C79.2453 74.7729 78.3993 74.4322 77.6493 73.926C76.8993 73.4198 76.262 72.7594 75.7786 71.9874C75.2908 71.0836 74.8645 70.1469 74.5025 69.1839H60.9801C60.8461 70.1594 60.4996 71.0922 59.9661 71.9143C59.4325 72.7365 58.7253 73.4273 57.8958 73.9364C57.209 74.3038 56.4878 74.6004 55.7429 74.8217C55.3062 74.9708 54.8488 75.0476 54.3882 75.0492H54.2128C53.817 75.042 53.4225 75.0009 53.0336 74.9262C51.516 74.6359 50.1417 73.8267 49.1389 72.633C48.3077 71.6374 47.7599 70.4299 47.5544 69.1408H45.1354C42.8192 69.1408 41.7124 68.028 41.7124 65.6917V19.0335C41.7124 18.1113 41.5189 17.9084 40.6239 17.9084H35.181C34.8993 17.9134 34.6178 17.8907 34.3404 17.8407C33.7896 17.7242 33.2806 17.4571 32.8682 17.0682C32.4557 16.6792 32.1555 16.1832 32 15.6336V14.3424C32.1661 13.7911 32.4623 13.2893 32.8629 12.8811C33.2634 12.4728 33.7562 12.1703 34.2981 12H42.5289ZM66.8584 19.8758H63.381C62.3106 19.8758 62.0203 20.1709 62.0203 21.253C62.0203 26.8928 62.0203 32.5307 62.0203 38.1665C62.0203 39.2793 62.3045 39.5621 63.4233 39.5621H78.0585C79.1652 39.5621 79.4434 39.2732 79.4434 38.1419C79.4434 32.5225 79.4434 26.9072 79.4434 21.296C79.4434 21.1115 79.5099 20.8718 79.4434 20.7488C79.2318 20.4414 78.9596 19.9495 78.6814 19.9311C77.3449 19.8512 76.0023 19.8942 74.6295 19.8942V24.3824C74.6295 25.4767 74.3392 25.778 73.2809 25.778C71.5876 25.778 69.8943 25.778 68.2009 25.778C67.1849 25.778 66.8826 25.4706 66.8826 24.4192L66.8584 19.8758ZM57.1762 41.5111H53.7109C52.6284 41.5111 52.3381 41.8062 52.3381 42.8821C52.3381 48.522 52.3381 54.1578 52.3381 59.7895C52.3381 60.9146 52.6223 61.1974 53.7411 61.1974H68.3763C69.483 61.1974 69.7673 60.9146 69.7673 59.7895V42.962C69.7824 42.7779 69.7824 42.5928 69.7673 42.4087C69.7599 42.1882 69.6713 41.9785 69.5189 41.8213C69.3665 41.6641 69.1616 41.5709 68.9448 41.5603C67.6264 41.5172 66.302 41.5603 64.9413 41.5603V46.2267C64.9413 47.1059 64.5966 47.4563 63.7318 47.4563H58.4703C57.5209 47.4563 57.2003 47.1243 57.2003 46.1652L57.1762 41.5111ZM84.2875 41.5111C84.2875 43.1403 84.2875 44.6958 84.2875 46.2513C84.2875 47.026 83.9307 47.4133 83.1929 47.4133C81.3424 47.4133 79.4878 47.4133 77.6291 47.4133C77.4825 47.4323 77.3336 47.417 77.1937 47.3684C77.0538 47.3199 76.9267 47.2394 76.8222 47.1331C76.7177 47.0269 76.6385 46.8977 76.5907 46.7555C76.543 46.6133 76.5279 46.4618 76.5466 46.3128C76.5466 44.9171 76.5466 43.5277 76.5466 42.132C76.5466 41.9353 76.5466 41.7386 76.5164 41.5172H73.0148C71.9988 41.5172 71.7025 41.8308 71.7025 42.8883V59.7956C71.7025 60.9208 71.9807 61.2036 73.0934 61.2036H87.7286C88.8414 61.2036 89.1256 60.9208 89.1256 59.7956C89.1256 54.7337 89.1256 49.6717 89.1256 44.6097C89.1256 43.9334 89.1256 43.2571 89.1256 42.5809C89.14 42.4405 89.124 42.2986 89.0789 42.1651C89.0339 42.0317 88.9607 41.9098 88.8646 41.8079C88.7685 41.7061 88.6517 41.6268 88.5223 41.5756C88.393 41.5243 88.2542 41.5023 88.1157 41.5111C86.8699 41.5111 85.618 41.5111 84.2875 41.5111ZM43.6658 24.825V61.1851H45.5224V24.825H43.6658ZM60.9801 67.0935H74.6779C74.9131 65.6406 75.5726 64.2932 76.5708 63.2263H59.063C60.0757 64.286 60.7447 65.6356 60.9801 67.0935ZM86.2228 68.1571C86.2323 67.1852 85.9583 66.2322 85.4354 65.4185C84.9125 64.6047 84.1642 63.9667 83.2849 63.585C82.4056 63.2033 81.4348 63.095 80.4951 63.2738C79.5553 63.4526 78.6887 63.9104 78.0047 64.5895C77.3207 65.2686 76.8499 66.1385 76.6518 67.0894C76.4537 68.0403 76.5372 69.0295 76.8918 69.9322C77.2463 70.8349 77.8559 71.6105 78.6437 72.1613C79.4315 72.712 80.3622 73.013 81.3182 73.0264C81.9551 73.0354 82.5874 72.9164 83.1789 72.6763C83.7704 72.4362 84.3095 72.0797 84.7652 71.6273C85.2209 71.1749 85.5842 70.6355 85.8343 70.04C86.0845 69.4445 86.2165 68.8046 86.2228 68.1571ZM49.4292 68.0833C49.4292 69.0543 49.7119 70.0035 50.2417 70.8114C50.7715 71.6193 51.5246 72.2497 52.4062 72.6232C53.2877 72.9967 54.2583 73.0966 55.1957 72.9103C56.133 72.7239 56.9951 72.2597 57.6734 71.5762C58.3516 70.8926 58.8157 70.0202 59.0072 69.069C59.1986 68.1178 59.1088 67.1302 58.7491 66.2307C58.3894 65.3313 57.7759 64.5602 56.9859 64.0146C56.1958 63.469 55.2646 63.1733 54.3096 63.1648C53.6707 63.1591 53.037 63.2822 52.4451 63.5268C51.8533 63.7714 51.3149 64.1328 50.8612 64.5901C50.4074 65.0474 50.0472 65.5915 49.8015 66.1911C49.5557 66.7907 49.4292 67.4338 49.4292 68.0833ZM45.5587 22.7961C45.5587 21.2345 45.5587 19.7221 45.5587 18.1727C45.5668 17.9059 45.5567 17.6389 45.5285 17.3735C45.4235 16.4868 45.0176 15.6651 44.3806 15.05C43.7436 14.435 42.9155 14.0652 42.039 14.0043C39.6623 13.9182 37.2796 13.9674 34.9028 14.0043C34.7777 14.001 34.6532 14.0232 34.5367 14.0697C34.4202 14.1161 34.3139 14.1857 34.2243 14.2746C34.1347 14.3634 34.0635 14.4696 34.0149 14.5868C33.9663 14.7041 33.9412 14.83 33.9413 14.9573C33.9444 15.2166 34.0476 15.4643 34.2285 15.6471C34.4095 15.8299 34.6538 15.9332 34.9089 15.9348C35.0722 15.9348 35.2355 15.9348 35.3927 15.9348C37.207 15.9348 39.0636 15.9348 40.9021 15.9348C41.2614 15.9246 41.619 15.9891 41.9529 16.1242C42.2869 16.2593 42.5902 16.4623 42.8444 16.7207C43.0986 16.9791 43.2982 17.2875 43.4311 17.627C43.5641 17.9665 43.6274 18.33 43.6174 18.6953C43.6174 19.7221 43.6174 20.7488 43.6174 21.7694V22.7838L45.5587 22.7961ZM43.6235 63.214C43.6235 64.2346 43.6235 65.2122 43.6235 66.1897C43.6117 66.4098 43.6846 66.626 43.8269 66.7924C43.9691 66.9588 44.1694 67.0623 44.3855 67.0812C45.4438 67.1427 46.5021 67.0812 47.4637 67.0812C47.683 66.3702 47.9415 65.6723 48.2378 64.9908C48.5851 64.3709 48.9668 63.7716 49.3808 63.1956L43.6235 63.214ZM86.1321 63.214C87.1715 64.2851 87.8582 65.6578 88.0975 67.1427C89.1317 67.1427 90.1356 67.1427 91.1213 67.1427C91.2393 67.1435 91.3563 67.1203 91.4653 67.0744C91.5744 67.0285 91.6732 66.9609 91.7561 66.8755C91.839 66.7901 91.9042 66.6887 91.9478 66.5772C91.9915 66.4658 92.0128 66.3465 92.0103 66.2266C92.0466 65.5303 92.0466 64.8325 92.0103 64.1362C92.012 64.0163 91.9898 63.8973 91.9449 63.7864C91.8999 63.6755 91.8333 63.575 91.7491 63.491C91.6648 63.4071 91.5646 63.3414 91.4546 63.298C91.3447 63.2546 91.2271 63.2344 91.1092 63.2386C89.5066 63.1771 87.898 63.1894 86.1321 63.1894V63.214ZM68.8359 19.9004V23.7614H72.6338V19.9004H68.8359ZM62.9577 41.5787H59.1598V45.4336H62.9577V41.5787ZM82.31 41.5787H78.5242V45.4397H82.3221L82.31 41.5787Z" fill="white"/>
<path d="M75.579 37.5885C75.2343 37.5885 74.8896 37.5885 74.5509 37.5885C74.3012 37.5773 74.0659 37.4665 73.896 37.28C73.7262 37.0935 73.6356 36.8465 73.6438 36.5925C73.6372 36.3435 73.7275 36.1018 73.8951 35.92C74.0626 35.7381 74.2939 35.6307 74.5388 35.6211C75.2222 35.5842 75.9116 35.5904 76.595 35.6211C76.7173 35.6243 76.8378 35.652 76.9496 35.7025C77.0614 35.7531 77.1623 35.8255 77.2465 35.9157C77.3308 36.0059 77.3967 36.1121 77.4406 36.2283C77.4844 36.3444 77.5053 36.4682 77.5021 36.5925C77.5028 36.8411 77.4109 37.0808 77.2448 37.2633C77.0788 37.4458 76.8509 37.5576 76.6071 37.5762H75.579V37.5885Z" fill="white"/>
<path d="M65.8666 59.2426C65.546 59.2426 65.2195 59.2426 64.8989 59.2426C64.6455 59.2426 64.4025 59.1403 64.2233 58.9581C64.0441 58.7759 63.9434 58.5288 63.9434 58.2712C63.9434 58.0136 64.0441 57.7665 64.2233 57.5843C64.4025 57.4021 64.6455 57.2998 64.8989 57.2998C65.5823 57.2998 66.2717 57.2998 66.9551 57.2998C67.2011 57.3063 67.4345 57.4114 67.6045 57.5922C67.7745 57.7731 67.8671 58.015 67.8623 58.2651C67.8673 58.5143 67.7767 58.7558 67.6096 58.9382C67.4425 59.1207 67.2121 59.2299 66.9672 59.2426C66.562 59.2672 66.1992 59.2426 65.8666 59.2426Z" fill="white"/>
<path d="M85.2552 59.2426C84.9104 59.2426 84.5657 59.2426 84.2271 59.2426C83.9827 59.2299 83.7525 59.1218 83.5847 58.9409C83.4168 58.7599 83.3241 58.52 83.326 58.2712C83.3195 58.0211 83.4106 57.7786 83.5794 57.5965C83.7483 57.4145 83.9811 57.3078 84.2271 57.2998C84.9105 57.2998 85.5999 57.2998 86.2833 57.2998C86.5287 57.3094 86.7606 57.4166 86.9291 57.5982C87.0976 57.7799 87.1893 58.0216 87.1843 58.2712C87.1877 58.5204 87.0956 58.7612 86.9274 58.9425C86.7592 59.1238 86.5282 59.2315 86.2833 59.2426C85.9446 59.2672 85.5999 59.2426 85.2552 59.2426Z" fill="white"/>
<path d="M81.3907 65.1572C81.9664 65.1585 82.5287 65.3338 83.0061 65.6607C83.4836 65.9877 83.8546 66.4516 84.0721 66.9934C84.2896 67.5353 84.3437 68.1306 84.2275 68.7038C84.1114 69.277 83.8302 69.8022 83.4197 70.2125C83.0093 70.6228 82.4881 70.8998 81.9224 71.0083C81.3567 71.1168 80.7721 71.0518 80.2428 70.8216C79.7135 70.5915 79.2635 70.2066 78.9499 69.7158C78.6364 69.225 78.4735 68.6505 78.4818 68.0653C78.4976 67.2906 78.8107 66.5528 79.3542 66.0094C79.8976 65.4661 80.6285 65.1603 81.3907 65.1572ZM81.3907 67.1308C81.2008 67.132 81.0155 67.1904 80.8582 67.2985C80.7008 67.4067 80.5785 67.5598 80.5067 67.7385C80.4348 67.9172 80.4167 68.1136 80.4544 68.3028C80.4922 68.492 80.5843 68.6656 80.719 68.8017C80.8537 68.9378 81.0251 69.0303 81.2114 69.0675C81.3978 69.1048 81.5908 69.085 81.7661 69.0109C81.9415 68.9367 82.0913 68.8114 82.1967 68.6508C82.3021 68.4902 82.3584 68.3014 82.3584 68.1083C82.3552 67.8469 82.2503 67.5973 82.0668 67.4142C81.8832 67.231 81.6358 67.1291 81.3786 67.1308H81.3907Z" fill="white"/>
<path d="M57.1762 68.1261C57.1725 68.7108 56.9981 69.2812 56.675 69.765C56.352 70.2487 55.8948 70.624 55.3616 70.8432C54.8285 71.0624 54.2432 71.1157 53.6802 70.9962C53.1172 70.8767 52.6018 70.5899 52.1994 70.1722C51.797 69.7544 51.5257 69.2246 51.42 68.6498C51.3143 68.0751 51.3789 67.4814 51.6056 66.944C51.8323 66.4066 52.211 65.9499 52.6935 65.6316C53.1759 65.3134 53.7406 65.148 54.3156 65.1566C55.0798 65.1727 55.8073 65.4926 56.3421 66.0478C56.8769 66.6029 57.1763 67.3491 57.1762 68.1261ZM55.2349 68.0892C55.2324 67.8942 55.173 67.7043 55.0641 67.5437C54.9552 67.383 54.8018 67.2589 54.6234 67.1872C54.445 67.1154 54.2496 67.0991 54.0621 67.1405C53.8746 67.1819 53.7034 67.279 53.5703 67.4195C53.4373 67.56 53.3483 67.7376 53.3147 67.9296C53.2811 68.1217 53.3044 68.3195 53.3817 68.4981C53.459 68.6766 53.5867 68.8278 53.7487 68.9323C53.9107 69.0369 54.0996 69.0901 54.2914 69.0852C54.5455 69.0772 54.7863 68.9685 54.9626 68.7825C55.1389 68.5964 55.2366 68.3476 55.2349 68.0892Z" fill="white"/>
</g>
<path d="M126.724 33.1172V58H121.614V33.1172H126.724ZM151.777 33.1172V58H146.65L136.653 41.3203V58H131.526V33.1172H136.653L146.667 49.814V33.1172H151.777ZM165.21 52.8047L171.072 33.1172H176.78L168.115 58H164.355L165.21 52.8047ZM159.81 33.1172L165.654 52.8047L166.543 58H162.749L154.136 33.1172H159.81ZM195.801 54.001V58H182.556V54.001H195.801ZM184.231 33.1172V58H179.104V33.1172H184.231ZM194.075 43.2515V47.1479H182.556V43.2515H194.075ZM195.784 33.1172V37.1333H182.556V33.1172H195.784ZM219.043 33.1172V58H213.916L203.918 41.3203V58H198.792V33.1172H203.918L213.933 49.814V33.1172H219.043ZM234.116 33.1172V58H229.006V33.1172H234.116ZM241.772 33.1172V37.1333H221.47V33.1172H241.772ZM252.966 37.3726L246.199 58H240.747L249.993 33.1172H253.462L252.966 37.3726ZM258.589 58L251.804 37.3726L251.257 33.1172H254.761L264.058 58H258.589ZM258.281 48.7373V52.7534H245.139V48.7373H258.281ZM266.365 33.1172H275.645C277.547 33.1172 279.182 33.402 280.549 33.9717C281.928 34.5413 282.987 35.3844 283.728 36.501C284.469 37.6175 284.839 38.9904 284.839 40.6196C284.839 41.9526 284.611 43.0977 284.155 44.0547C283.711 45.0003 283.079 45.7922 282.258 46.4302C281.449 47.0568 280.498 47.5581 279.404 47.9341L277.781 48.7886H269.714L269.68 44.7896H275.679C276.579 44.7896 277.325 44.63 277.917 44.311C278.51 43.992 278.954 43.5477 279.25 42.978C279.558 42.4084 279.712 41.7476 279.712 40.9956C279.712 40.1981 279.564 39.5088 279.268 38.9277C278.971 38.3467 278.521 37.9023 277.917 37.5947C277.314 37.2871 276.556 37.1333 275.645 37.1333H271.492V58H266.365V33.1172ZM280.276 58L274.602 46.9087L280.02 46.8745L285.762 57.7607V58H280.276ZM294.238 33.1172V58H289.128V33.1172H294.238ZM319.48 44.9775V46.1567C319.48 48.048 319.224 49.7456 318.711 51.2495C318.198 52.7534 317.475 54.0352 316.541 55.0947C315.606 56.1429 314.49 56.9461 313.191 57.5044C311.903 58.0627 310.474 58.3418 308.901 58.3418C307.34 58.3418 305.911 58.0627 304.612 57.5044C303.324 56.9461 302.208 56.1429 301.262 55.0947C300.317 54.0352 299.582 52.7534 299.058 51.2495C298.545 49.7456 298.289 48.048 298.289 46.1567V44.9775C298.289 43.0749 298.545 41.3773 299.058 39.8848C299.57 38.3809 300.294 37.0991 301.228 36.0396C302.174 34.98 303.29 34.1711 304.578 33.6128C305.876 33.0545 307.306 32.7754 308.867 32.7754C310.439 32.7754 311.869 33.0545 313.157 33.6128C314.456 34.1711 315.572 34.98 316.506 36.0396C317.452 37.0991 318.181 38.3809 318.694 39.8848C319.218 41.3773 319.48 43.0749 319.48 44.9775ZM314.302 46.1567V44.9434C314.302 43.6217 314.182 42.4596 313.943 41.457C313.704 40.4544 313.35 39.6113 312.883 38.9277C312.416 38.2441 311.847 37.7314 311.174 37.3896C310.502 37.0365 309.733 36.8599 308.867 36.8599C308.001 36.8599 307.232 37.0365 306.56 37.3896C305.899 37.7314 305.335 38.2441 304.868 38.9277C304.412 39.6113 304.065 40.4544 303.826 41.457C303.586 42.4596 303.467 43.6217 303.467 44.9434V46.1567C303.467 47.467 303.586 48.6291 303.826 49.6431C304.065 50.6457 304.418 51.4945 304.885 52.1895C305.352 52.873 305.922 53.3914 306.594 53.7446C307.266 54.0978 308.035 54.2744 308.901 54.2744C309.767 54.2744 310.536 54.0978 311.208 53.7446C311.881 53.3914 312.445 52.873 312.9 52.1895C313.356 51.4945 313.704 50.6457 313.943 49.6431C314.182 48.6291 314.302 47.467 314.302 46.1567Z" fill="white"/>
<defs>
<filter id="filter0_d_375_413" x="0" y="0" width="371" height="108" filterUnits="userSpaceOnUse" color-interpolation-filters="sRGB">
<feFlood flood-opacity="0" result="BackgroundImageFix"/>
<feColorMatrix in="SourceAlpha" type="matrix" values="0 0 0 0 0 0 0 0 0 0 0 0 0 0 0 0 0 0 127 0" result="hardAlpha"/>
<feOffset dx="5" dy="10"/>
<feGaussianBlur stdDeviation="5"/>
<feComposite in2="hardAlpha" operator="out"/>
<feColorMatrix type="matrix" values="0 0 0 0 0 0 0 0 0 0 0 0 0 0 0 0 0 0 0.15 0"/>
<feBlend mode="normal" in2="BackgroundImageFix" result="effect1_dropShadow_375_413"/>
<feBlend mode="normal" in="SourceGraphic" in2="effect1_dropShadow_375_413" result="shape"/>
</filter>
<clipPath id="clip0_375_413">
<rect width="62" height="63" fill="white" transform="translate(32 12)"/>
</clipPath>
</defs>
</svg>
