<svg width="24" height="18" viewBox="0 0 24 18" fill="none" xmlns="http://www.w3.org/2000/svg">
<g clip-path="url(#clip0_333_12)">
<path d="M21.5141 18.0003H2.48202C2.44752 17.9831 2.41136 17.9697 2.37411 17.9602C2.00479 17.9035 1.65051 17.771 1.33255 17.5708C1.01459 17.3706 0.739525 17.1067 0.523879 16.7951C0.256742 16.3952 0.0773676 15.9409 -0.00195312 15.4635V2.53708C0.0140183 2.50146 0.027141 2.46457 0.0372876 2.42678C0.321787 0.934806 1.42055 0.00231927 2.90779 0.000313919C8.96665 0.000313919 15.0262 0.000313919 21.0863 0.000313919C21.3277 -0.00312954 21.5687 0.0217661 21.8045 0.0745118C22.4337 0.215163 22.9959 0.573993 23.3958 1.09011C23.7956 1.60623 24.0084 2.24784 23.998 2.90606C23.998 4.81114 23.998 6.71622 23.998 8.62331C23.998 10.7771 23.998 12.9308 23.998 15.0845C24.0073 15.557 23.9013 16.0244 23.6896 16.4445C23.4779 16.8647 23.1672 17.2243 22.7855 17.491C22.4011 17.7496 21.968 17.9231 21.5141 18.0003ZM22.1243 3.46756C22.0085 3.55178 21.9281 3.60593 21.8594 3.66809C18.6573 6.10125 15.4565 8.53307 12.257 10.9635C12.2244 10.9993 12.1849 11.0277 12.141 11.0472C12.0971 11.0666 12.0498 11.0767 12.002 11.0767C11.9541 11.0767 11.9068 11.0666 11.8629 11.0472C11.8191 11.0277 11.7796 10.9993 11.7469 10.9635C8.55527 8.52505 5.35514 6.09256 2.14651 3.66609C2.06803 3.60593 1.98758 3.54978 1.87574 3.46555V14.9502C1.87574 15.7262 2.23088 16.0852 2.99805 16.0852H20.9961C21.7809 16.0852 22.1243 15.7283 22.1243 14.9321V3.46756ZM2.99216 1.92144L12 8.76368L21.0059 1.92144H2.99216Z" fill="white"/>
</g>
<defs>
<clipPath id="clip0_333_12">
<rect width="24" height="18" fill="white"/>
</clipPath>
</defs>
</svg>
