<svg width="30" height="30" viewBox="0 0 30 30" fill="none" xmlns="http://www.w3.org/2000/svg">
<g clip-path="url(#clip0_133_26)">
<path fill-rule="evenodd" clip-rule="evenodd" d="M0 14.733C0 22.017 5.29029 28.0741 12.2093 29.3023V18.7205H8.54651V14.6512H12.2093V11.3949C12.2093 7.73215 14.5694 5.69808 17.9074 5.69808C18.9647 5.69808 20.1051 5.86047 21.1624 6.02285V9.76744H19.2907C17.4996 9.76744 17.093 10.6624 17.093 11.8027V14.6512H21L20.3492 18.7205H17.093V29.3023C24.012 28.0741 29.3023 22.0183 29.3023 14.733C29.3023 6.62965 22.7093 0 14.6512 0C6.59302 0 0 6.62965 0 14.733Z" fill="#BE0412"/>
</g>
<defs>
<clipPath id="clip0_133_26">
<rect width="29.3023" height="29.3023" fill="white"/>
</clipPath>
</defs>
</svg>
