<svg width="30" height="30" viewBox="0 0 30 30" fill="none" xmlns="http://www.w3.org/2000/svg">
<g clip-path="url(#clip0_133_23)">
<path fill-rule="evenodd" clip-rule="evenodd" d="M9.11426 1.30128C10.5464 1.23535 11.003 1.2207 14.6512 1.2207C18.2993 1.2207 18.7559 1.23658 20.1869 1.30128C21.6178 1.36599 22.5946 1.59431 23.4492 1.92518C24.3441 2.26338 25.1561 2.79204 25.8276 3.47576C26.5113 4.14605 27.0387 4.95675 27.3757 5.85291C27.7078 6.70756 27.9349 7.68431 28.0008 9.1128C28.0668 10.5474 28.0814 11.004 28.0814 14.6509C28.0814 18.2991 28.0655 18.7557 28.0008 20.1879C27.9361 21.6163 27.7078 22.5931 27.3757 23.4477C27.0387 24.344 26.5104 25.1561 25.8276 25.8273C25.1561 26.5111 24.3441 27.0385 23.4492 27.3755C22.5946 27.7076 21.6178 27.9347 20.1893 28.0006C18.7559 28.0665 18.2993 28.0812 14.6512 28.0812C11.003 28.0812 10.5464 28.0653 9.11426 28.0006C7.68577 27.9359 6.70903 27.7076 5.85438 27.3755C4.95812 27.0385 4.14608 26.5101 3.47478 25.8273C2.79153 25.1566 2.26278 24.345 1.92542 23.449C1.59455 22.5943 1.36746 21.6176 1.30153 20.1891C1.2356 18.7545 1.22095 18.2979 1.22095 14.6509C1.22095 11.0028 1.23682 10.5462 1.30153 9.11524C1.36624 7.68431 1.59455 6.70756 1.92542 5.85291C2.26328 4.95685 2.79243 4.14521 3.47601 3.47454C4.14635 2.79143 4.95757 2.2627 5.85316 1.92518C6.70781 1.59431 7.68455 1.36721 9.11304 1.30128H9.11426ZM20.0782 3.71873C18.6619 3.65402 18.2371 3.64059 14.6512 3.64059C11.0653 3.64059 10.6404 3.65402 9.22414 3.71873C7.91409 3.77855 7.20351 3.9971 6.72978 4.18146C6.10345 4.42564 5.65537 4.71501 5.18531 5.18506C4.73972 5.61856 4.39681 6.14628 4.1817 6.72954C3.99734 7.20326 3.7788 7.91384 3.71897 9.2239C3.65426 10.6402 3.64083 11.0651 3.64083 14.6509C3.64083 18.2368 3.65426 18.6617 3.71897 20.078C3.7788 21.388 3.99734 22.0986 4.1817 22.5723C4.39659 23.1547 4.73967 23.6834 5.18531 24.1168C5.61874 24.5624 6.1474 24.9055 6.72978 25.1204C7.20351 25.3048 7.91409 25.5233 9.22414 25.5831C10.6404 25.6479 11.0641 25.6613 14.6512 25.6613C18.2383 25.6613 18.6619 25.6479 20.0782 25.5831C21.3883 25.5233 22.0989 25.3048 22.5726 25.1204C23.1989 24.8762 23.647 24.5869 24.1171 24.1168C24.5627 23.6834 24.9058 23.1547 25.1207 22.5723C25.305 22.0986 25.5236 21.388 25.5834 20.078C25.6481 18.6617 25.6615 18.2368 25.6615 14.6509C25.6615 11.0651 25.6481 10.6402 25.5834 9.2239C25.5236 7.91384 25.305 7.20326 25.1207 6.72954C24.8765 6.1032 24.5871 5.65512 24.1171 5.18506C23.6835 4.73951 23.1558 4.3966 22.5726 4.18146C22.0989 3.9971 21.3883 3.77855 20.0782 3.71873ZM12.9358 18.7911C13.8938 19.1899 14.9605 19.2437 15.9538 18.9434C16.9471 18.643 17.8053 18.0072 18.3819 17.1444C18.9584 16.2816 19.2175 15.2454 19.115 14.2127C19.0124 13.1801 18.5545 12.2151 17.8195 11.4826C17.3509 11.0144 16.7844 10.6558 16.1607 10.4328C15.5369 10.2098 14.8715 10.1278 14.2122 10.1929C13.553 10.2579 12.9164 10.4682 12.3483 10.8088C11.7801 11.1494 11.2945 11.6117 10.9265 12.1625C10.5585 12.7133 10.3171 13.3388 10.2198 13.994C10.1226 14.6493 10.1718 15.3179 10.3639 15.9519C10.5561 16.5858 10.8864 17.1692 11.3311 17.6602C11.7758 18.1511 12.3239 18.5374 12.9358 18.7911ZM9.7699 9.76966C10.4109 9.12864 11.1719 8.62015 12.0095 8.27324C12.847 7.92632 13.7446 7.74776 14.6512 7.74776C15.5577 7.74776 16.4554 7.92632 17.2929 8.27324C18.1304 8.62015 18.8914 9.12864 19.5325 9.76966C20.1735 10.4107 20.682 11.1717 21.0289 12.0092C21.3758 12.8467 21.5544 13.7444 21.5544 14.6509C21.5544 15.5575 21.3758 16.4551 21.0289 17.2927C20.682 18.1302 20.1735 18.8912 19.5325 19.5322C18.2379 20.8268 16.482 21.5541 14.6512 21.5541C12.8203 21.5541 11.0645 20.8268 9.7699 19.5322C8.4753 18.2376 7.74801 16.4818 7.74801 14.6509C7.74801 12.8201 8.4753 11.0643 9.7699 9.76966ZM23.0854 8.77582C23.2442 8.62597 23.3714 8.44578 23.4593 8.2459C23.5473 8.04603 23.5943 7.83054 23.5974 7.61219C23.6006 7.39384 23.56 7.17707 23.4779 6.97472C23.3958 6.77236 23.2739 6.58854 23.1195 6.43412C22.9651 6.27971 22.7813 6.15785 22.5789 6.07575C22.3766 5.99366 22.1598 5.953 21.9414 5.95618C21.7231 5.95937 21.5076 6.00633 21.3077 6.09429C21.1078 6.18224 20.9277 6.30941 20.7778 6.46826C20.4864 6.77719 20.3268 7.18754 20.333 7.61219C20.3392 8.03684 20.5107 8.44236 20.811 8.74266C21.1113 9.04297 21.5168 9.21441 21.9414 9.2206C22.3661 9.22679 22.7764 9.06724 23.0854 8.77582Z" fill="#BE0412"/>
</g>
<defs>
<clipPath id="clip0_133_23">
<rect width="29.3023" height="29.3023" fill="white"/>
</clipPath>
</defs>
</svg>
