<svg width="28" height="27" viewBox="0 0 28 27" fill="none" xmlns="http://www.w3.org/2000/svg">
<path fill-rule="evenodd" clip-rule="evenodd" d="M0.220948 2.19181C0.220948 1.61051 0.457376 1.05301 0.87822 0.641968C1.29907 0.230925 1.86985 2.92199e-06 2.46502 2.92199e-06H24.8349C25.1298 -0.000467579 25.422 0.0558867 25.6946 0.165839C25.9672 0.275792 26.215 0.437183 26.4236 0.640774C26.6323 0.844364 26.7978 1.08616 26.9107 1.3523C27.0236 1.61845 27.0816 1.90373 27.0814 2.19181V24.0407C27.0817 24.3288 27.0239 24.6142 26.9112 24.8805C26.7985 25.1468 26.6331 25.3887 26.4246 25.5925C26.216 25.7963 25.9684 25.9579 25.6958 26.0682C25.4233 26.1784 25.1311 26.2351 24.8361 26.2349H2.46502C2.17022 26.2349 1.87831 26.1782 1.60597 26.0679C1.33362 25.9577 1.08619 25.7962 0.877789 25.5925C0.669391 25.3889 0.50412 25.1471 0.391417 24.881C0.278713 24.615 0.220787 24.3298 0.220948 24.0419V2.19181ZM10.8528 10.0027H14.49V11.7866C15.015 10.7611 16.358 9.83809 18.3762 9.83809C22.2453 9.83809 23.1622 11.8808 23.1622 15.6288V22.5716H19.2467V16.4827C19.2467 14.3481 18.7217 13.1437 17.3884 13.1437C15.5387 13.1437 14.7696 14.4423 14.7696 16.4827V22.5716H10.8528V10.0027ZM4.13769 22.4082H8.05444V9.83809H4.13769V22.407V22.4082ZM8.61484 5.73829C8.62223 6.06584 8.56255 6.39152 8.43932 6.69624C8.31609 7.00095 8.13178 7.27856 7.89722 7.51276C7.66265 7.74696 7.38256 7.93304 7.07336 8.06009C6.76417 8.18713 6.43211 8.25257 6.09667 8.25257C5.76124 8.25257 5.42918 8.18713 5.11999 8.06009C4.81079 7.93304 4.53069 7.74696 4.29613 7.51276C4.06157 7.27856 3.87726 7.00095 3.75403 6.69624C3.6308 6.39152 3.57112 6.06584 3.57851 5.73829C3.593 5.09536 3.86467 4.48354 4.33534 4.03384C4.80601 3.58414 5.43826 3.33233 6.09667 3.33233C6.75509 3.33233 7.38734 3.58414 7.85801 4.03384C8.32868 4.48354 8.60035 5.09536 8.61484 5.73829Z" fill="#BE0412"/>
</svg>
