<svg width="24" height="28" viewBox="0 0 24 28" fill="none" xmlns="http://www.w3.org/2000/svg">
<g clip-path="url(#clip0_333_3)">
<path d="M0 22.4617C0.348378 20.9343 1.50768 20.2001 2.78117 19.5992C4.19742 18.9725 5.68994 18.5395 7.21932 18.3115L7.42425 18.2612C7.36277 18.1606 7.31593 18.0777 7.26616 17.9977C6.34984 16.5532 5.41888 15.1204 4.52598 13.6699C3.36867 11.8455 2.94258 9.64367 3.33447 7.51274C3.89949 4.34829 5.64723 2.03934 8.55721 0.77534C11.5579 -0.538986 14.4708 -0.168962 17.1378 1.7522C18.9423 3.03122 20.1842 4.96955 20.6011 7.15752C20.8438 8.26578 20.8676 9.41158 20.6711 10.5292C20.4747 11.6467 20.0619 12.7141 19.4565 13.6699C18.5548 15.1323 17.6209 16.5769 16.7016 18.0273C16.6606 18.0954 16.6255 18.1635 16.5758 18.2523C17.0998 18.3618 17.6004 18.4566 18.101 18.572C19.3741 18.837 20.6047 19.2794 21.7575 19.8863C22.5128 20.3008 23.2213 20.7922 23.6487 21.5737C23.8997 21.9865 24.0195 22.4673 23.9917 22.9511C23.964 23.435 23.7901 23.8985 23.4935 24.2793C22.9853 24.9407 22.3237 25.4653 21.5672 25.8067C20.0465 26.5519 18.416 27.0418 16.7397 27.2572C15.6594 27.4141 14.5704 27.4881 13.4843 27.6006C13.3964 27.6006 13.3086 27.6302 13.2237 27.645H10.7177C10.6299 27.6273 10.545 27.6095 10.4572 27.5977C9.37399 27.4852 8.28495 27.4112 7.20468 27.2543C5.70833 27.0571 4.24801 26.6424 2.86899 26.0228C1.56038 25.4308 0.36887 24.6759 0 23.1159V22.4617ZM12.0029 22.4854L12.1874 22.2101C14.0903 19.1759 15.9961 16.1358 17.9224 13.1075C19.4477 10.7097 19.6467 8.20838 18.3908 5.67742C17.8822 4.56707 17.09 3.61392 16.0958 2.91617C15.1016 2.21843 13.9415 1.80131 12.7348 1.7078C10.0151 1.42954 7.81654 2.47745 6.18004 4.68279C5.33743 5.85696 4.85961 7.25821 4.80748 8.70797C4.75534 10.1577 5.13124 11.5904 5.88729 12.8233L9.94779 19.244C10.6241 20.3097 11.2945 21.3664 11.9912 22.4854H12.0029ZM12.0029 26.0583C13.0129 25.9932 14.0259 25.9518 15.0329 25.8571C16.7784 25.7234 18.4954 25.3335 20.1298 24.6996C20.874 24.449 21.5491 24.024 22.1 23.4593C22.5187 22.9827 22.5099 22.5712 22.1 22.1006C21.6986 21.6782 21.2179 21.341 20.686 21.1089C19.1959 20.3925 17.6004 20.061 15.9815 19.8123C15.8746 19.784 15.7612 19.7953 15.6619 19.8442C15.5626 19.8931 15.4838 19.9763 15.4399 20.0788C14.5616 21.4908 13.6833 22.8969 12.7846 24.3059C12.7181 24.452 12.6117 24.5757 12.4778 24.6624C12.3439 24.7491 12.1883 24.7952 12.0293 24.7952C11.8703 24.7952 11.7146 24.7491 11.5808 24.6624C11.4469 24.5757 11.3404 24.452 11.274 24.3059C10.3664 22.8584 9.45304 21.4168 8.5455 19.9663C8.5174 19.8976 8.46476 19.8421 8.39805 19.8108C8.33133 19.7795 8.25542 19.7748 8.18541 19.7975C7.81361 19.8775 7.4301 19.913 7.05538 19.9811C5.63282 20.201 4.25474 20.6518 2.97438 21.3161C2.51191 21.5483 2.11057 21.8882 1.80337 22.3078C1.7026 22.4323 1.64586 22.5874 1.64215 22.7483C1.63843 22.9091 1.68796 23.0667 1.78287 23.1958C1.98307 23.4683 2.22064 23.7105 2.48841 23.9152C3.33239 24.4826 4.26752 24.8973 5.25201 25.1407C7.44598 25.7337 9.70564 26.042 11.9766 26.0583H12.0029Z" fill="white"/>
<path d="M15.9961 8.98405C15.9961 9.78355 15.7617 10.5651 15.3225 11.23C14.8834 11.8948 14.2592 12.4131 13.5288 12.7193C12.7984 13.0255 11.9946 13.106 11.2191 12.9504C10.4435 12.7949 9.73091 12.4103 9.17141 11.8454C8.6119 11.2805 8.23057 10.5605 8.0756 9.77655C7.92064 8.99255 7.999 8.1797 8.30078 7.44072C8.60256 6.70175 9.11421 6.06981 9.77108 5.62478C10.4279 5.17975 11.2005 4.9416 11.9912 4.94043C13.0519 4.94199 14.0688 5.36833 14.8193 6.12615C15.5699 6.88397 15.993 7.91156 15.9961 8.98405ZM14.3947 8.96925C14.3924 8.48951 14.2494 8.02125 13.9837 7.62375C13.7181 7.22625 13.3418 6.91737 12.9024 6.73623C12.4631 6.55508 11.9805 6.50981 11.5157 6.60613C11.0509 6.70246 10.6248 6.93606 10.2914 7.27736C9.95793 7.61866 9.73214 8.05232 9.64256 8.52344C9.55299 8.99456 9.60366 9.48196 9.78816 9.92395C9.97267 10.3659 10.2827 10.7426 10.679 11.0064C11.0754 11.2701 11.5402 11.409 12.0146 11.4055C12.6476 11.3947 13.2512 11.1336 13.6961 10.6782C14.141 10.2228 14.3918 9.60935 14.3947 8.96925Z" fill="white"/>
</g>
<defs>
<clipPath id="clip0_333_3">
<rect width="24" height="27.6364" fill="white"/>
</clipPath>
</defs>
</svg>
