<svg width="27" height="22" viewBox="0 0 27 22" fill="none" xmlns="http://www.w3.org/2000/svg">
<g clip-path="url(#clip0_359_184)">
<path d="M18.0971 0H19.0927C19.3052 0.0266362 19.5189 0.0322124 19.732 0.0495569C20.0965 0.0786709 20.4256 0.214949 20.7617 0.345032C21.4085 0.604179 21.9976 0.985055 22.4956 1.46623C22.5441 1.52022 22.6076 1.55921 22.6782 1.57846C22.7488 1.5977 22.8236 1.59637 22.8935 1.57464C23.8262 1.36252 24.7286 1.03794 25.5802 0.608297C25.7063 0.546353 25.828 0.465825 25.9585 0.403881C26.0153 0.376625 26.072 0.34689 26.1294 0.387154C26.1868 0.427418 26.1767 0.505469 26.1578 0.567414C26.0658 0.846925 25.9456 1.1167 25.799 1.37269C25.5192 1.87302 25.1635 2.32858 24.7441 2.72371C24.5298 2.92087 24.3009 3.10224 24.0594 3.26634C24.9304 3.13678 25.7821 2.90381 26.596 2.57256C26.6805 2.53849 26.7656 2.48027 26.8621 2.54345V2.60849C26.724 3.00556 26.4207 3.28988 26.1628 3.60766C25.9049 3.92544 25.6048 4.19428 25.316 4.4786C25.035 4.75534 24.732 5.0097 24.4099 5.23928C24.2712 5.33778 24.1962 5.4499 24.2145 5.62086C24.2233 5.70697 24.2145 5.79431 24.2145 5.88165C24.2318 7.24511 24.0597 8.60452 23.7031 9.9223C23.2739 11.5436 22.5918 13.0899 21.681 14.5062C21.1664 15.304 20.5807 16.0552 19.9306 16.7511C19.0449 17.7077 18.0334 18.5443 16.923 19.2388C15.6582 20.0317 14.2776 20.6304 12.829 21.0141C12.1741 21.1928 11.507 21.3245 10.8327 21.4081C10.433 21.4552 10.03 21.4632 9.62713 21.47C9.56408 21.47 9.49536 21.4515 9.43293 21.4855H7.4745C7.18508 21.4508 6.89315 21.4515 6.60248 21.4409C6.07275 21.4123 5.54669 21.3373 5.03056 21.2167C3.68435 20.9256 2.38278 20.4624 1.1591 19.839C0.810415 19.6619 0.471189 19.4674 0.134486 19.2691C0.100623 19.2507 0.0701454 19.2268 0.0443202 19.1985C-0.0357572 19.1013 -0.00486245 19.0245 0.121874 19.0053C0.222129 18.9898 0.319231 19.0195 0.418225 19.0263C2.19505 19.1533 3.97704 18.8613 5.61569 18.1746C6.38344 17.8514 7.1115 17.4439 7.78599 16.9598C7.82064 16.9406 7.84773 16.9105 7.86291 16.8744C7.54283 16.857 7.22511 16.8101 6.91396 16.7344C6.10368 16.5481 5.34833 16.1801 4.7071 15.659C4.04665 15.1345 3.51498 14.4705 3.15158 13.7164C3.07312 13.5546 3.00509 13.388 2.94791 13.2178C2.8899 13.0425 2.95485 12.97 3.13707 12.9892C3.39433 13.0202 3.65285 13.0511 3.91137 13.061C4.32058 13.0728 4.72349 13.009 5.11694 12.9477C4.62197 12.822 4.14755 12.6282 3.70771 12.3722C2.76801 11.8283 2.01026 11.0268 1.52733 10.066C1.17213 9.37478 0.978272 8.61445 0.959849 7.84034C0.959849 7.80194 0.959849 7.76415 0.959849 7.72636C0.97246 7.53743 1.04371 7.49345 1.21711 7.5715C1.49779 7.6999 1.78555 7.81282 2.07904 7.90972C2.4594 8.02829 2.85146 8.10698 3.24868 8.14449C2.66165 7.67805 2.1421 7.15709 1.76378 6.51349C1.34796 5.81214 1.09356 5.02982 1.01849 4.22153C0.943329 3.40798 1.05095 2.58814 1.33375 1.81994C1.42345 1.57433 1.53375 1.33648 1.66352 1.10881C1.75747 0.94218 1.87727 0.932268 1.99959 1.08032C2.44004 1.60371 2.91793 2.09556 3.42964 2.55212C4.30694 3.34941 5.27664 4.04258 6.31874 4.61736C7.24747 5.13471 8.22836 5.55592 9.24566 5.87422C10.278 6.19907 11.3423 6.41604 12.421 6.52154C12.5856 6.53702 12.7514 6.54136 12.9154 6.56924C13.0616 6.59401 13.1007 6.55747 13.0698 6.40942C13.0091 6.08916 12.9802 5.76387 12.9835 5.43813C12.9774 4.97082 13.036 4.50488 13.1575 4.05304C13.3598 3.29395 13.7236 2.58562 14.225 1.9748C14.8732 1.18367 15.7302 0.582631 16.7023 0.237249C17.1195 0.0942154 17.5581 0.0203198 18 0.0185845C18.034 0.0154873 18.0687 0.0247779 18.0971 0Z" fill="#BE0412"/>
</g>
<defs>
<clipPath id="clip0_359_184">
<rect width="26.86" height="21.488" fill="white"/>
</clipPath>
</defs>
</svg>
