<svg width="24" height="24" viewBox="0 0 24 24" fill="none" xmlns="http://www.w3.org/2000/svg">
<g clip-path="url(#clip0_359_180)">
<path d="M0 23.9997C0.0610123 23.777 0.118327 23.5635 0.184886 23.3518C0.677914 21.5409 1.17464 19.7313 1.67506 17.9228C1.68801 17.8748 1.68275 17.8237 1.66027 17.7793C0.836601 16.3505 0.332108 14.7618 0.181188 13.1213C-0.159002 9.2879 1.0483 6.00287 3.81419 3.31228C5.50446 1.66265 7.66354 0.570412 9.99861 0.183686C12.4911 -0.250308 15.0577 0.114887 17.3283 1.2266C19.5988 2.33832 21.456 4.13911 22.632 6.3693C23.8079 8.59949 24.242 11.1438 23.8715 13.6354C23.5009 16.127 22.345 18.437 20.5704 20.2325C18.7633 22.0676 16.4072 23.2702 13.8555 23.6597C11.3037 24.0492 8.6939 23.6048 6.41738 22.393C6.39174 22.3787 6.36345 22.3697 6.33422 22.3665C6.30499 22.3634 6.27542 22.3661 6.24728 22.3746L0.0905939 23.9831L0 23.9997ZM2.87127 21.1747L2.95817 21.1563L6.21585 20.3061C6.34277 20.2514 6.47884 20.2208 6.61706 20.2159C6.75128 20.2587 6.87658 20.3254 6.98683 20.4128C8.8597 21.5232 11.0498 21.9834 13.2138 21.7213C14.8519 21.5355 16.4157 20.9384 17.7583 19.9858C19.2585 18.9351 20.437 17.4913 21.1631 15.8145C21.8892 14.1378 22.1345 12.2935 21.8719 10.4864C21.6092 8.67934 20.8488 6.97997 19.675 5.57682C18.5012 4.17367 16.9599 3.12157 15.222 2.53722C13.4841 1.95286 11.6176 1.85909 9.8294 2.2663C8.04124 2.67351 6.40134 3.56578 5.09157 4.84417C3.78181 6.12255 2.85337 7.73707 2.40924 9.50866C1.96511 11.2803 2.02264 13.1397 2.57546 14.8807C2.86643 15.7942 3.28665 16.6617 3.82343 17.4572C3.83944 17.4803 3.84992 17.5067 3.85409 17.5345C3.85825 17.5622 3.85599 17.5906 3.84747 17.6173C3.53686 18.7399 3.22872 19.8625 2.92304 20.9852C2.9027 21.044 2.88791 21.1048 2.87127 21.1747Z" fill="white"/>
<path d="M8.14236 6.41679H8.51213C8.58052 6.41383 8.64854 6.42835 8.7097 6.45895C8.77086 6.48955 8.82314 6.53522 8.86157 6.59162C8.94234 6.70738 9.01168 6.83065 9.06864 6.95969C9.35706 7.6443 9.6233 8.33995 9.9339 9.01904C10.0063 9.14937 10.0417 9.2969 10.0361 9.44575C10.0306 9.59459 9.98439 9.73911 9.90247 9.86376C9.71951 10.1468 9.50828 10.4107 9.27201 10.6514C9.00393 10.9404 8.98359 11.0434 9.18697 11.3765C9.89629 12.5966 10.9168 13.6086 12.1451 14.31C12.5149 14.5125 12.9013 14.6781 13.284 14.8621C13.3755 14.9169 13.4848 14.9337 13.5886 14.9089C13.6924 14.8841 13.7822 14.8197 13.8387 14.7296C14.1604 14.3383 14.479 13.9438 14.7945 13.5463C14.8418 13.4639 14.9177 13.4015 15.008 13.371C15.0982 13.3405 15.1966 13.3439 15.2845 13.3807C15.5079 13.4578 15.7264 13.5482 15.939 13.6512C16.5491 13.9401 17.1518 14.2456 17.7657 14.5272C17.8799 14.5678 17.9762 14.6469 18.038 14.7507C18.0998 14.8546 18.1231 14.9767 18.104 15.0959C18.0789 15.4734 17.9992 15.8453 17.8673 16.2001C17.7886 16.3899 17.6664 16.5588 17.5105 16.6933C17.0465 17.1488 16.4571 17.4569 15.817 17.5785C15.1343 17.689 14.4347 17.6257 13.7832 17.3945C12.9294 17.1223 12.1061 16.7634 11.3261 16.3234C10.2876 15.6958 9.34916 14.9173 8.54171 14.0137C7.84395 13.2628 7.2245 12.4433 6.69286 11.5679C6.35809 11.0318 6.1308 10.4362 6.02357 9.81407C5.93006 9.32156 5.95056 8.81432 6.08351 8.33088C6.21646 7.84744 6.45837 7.40053 6.79085 7.0241C6.8722 6.93024 6.95724 6.84007 7.04414 6.74989C7.1482 6.63732 7.27536 6.54834 7.41699 6.48896C7.55862 6.42958 7.71142 6.4012 7.86503 6.40574H8.14051L8.14236 6.41679Z" fill="white"/>
</g>
<defs>
<clipPath id="clip0_359_180">
<rect width="24" height="24" fill="white"/>
</clipPath>
</defs>
</svg>
