<svg width="27" height="19" viewBox="0 0 27 19" fill="none" xmlns="http://www.w3.org/2000/svg">
<g clip-path="url(#clip0_359_189)">
<path d="M26.8501 8.99609C26.8501 8.89366 26.8414 8.79183 26.8501 8.68941C26.8501 8.68941 26.8501 8.68941 26.8542 8.68941C26.8588 8.38155 26.8542 8.07312 26.846 7.76527C26.8402 7.43927 26.8326 7.11269 26.8122 6.7867C26.8 6.59883 26.7918 6.41037 26.779 6.2225C26.7627 5.97318 26.7417 5.72444 26.7208 5.4757C26.6957 5.19419 26.6701 4.91267 26.6357 4.63233C26.5774 4.17114 26.5139 3.71112 26.4161 3.25637C26.357 2.95035 26.2623 2.65236 26.1341 2.36852C25.9114 1.89414 25.5826 1.4779 25.1734 1.15233C24.7713 0.827991 24.2992 0.602702 23.7949 0.494489C23.2175 0.370412 22.6297 0.314812 22.0471 0.260382C21.7628 0.232874 21.4773 0.214731 21.1924 0.194246C20.9075 0.173762 20.6098 0.156788 20.3185 0.141571C20.0466 0.127524 19.7747 0.114259 19.5028 0.101773C19.2826 0.0924088 19.0624 0.0842144 18.8421 0.0754353C18.5852 0.0654858 18.3277 0.0578772 18.0708 0.0496834C17.7433 0.0391486 17.4159 0.0362246 17.0891 0.0227634C16.9015 0.0151549 16.7133 0.0227643 16.5257 0.0163263C16.2833 0.00754732 16.0404 0.0116426 15.798 0.0110574C15.2859 0.0110574 14.7738 -6.41597e-05 14.2623 0.00227691V0.00754589C14.2425 0.00754589 14.2232 0.0110575 14.204 0.00754589C13.6913 0.00403428 13.179 0.00403428 12.6671 0.00754589C12.6479 0.00754589 12.628 0.00754589 12.6088 0.00754589V0.00227691C12.3851 0.00520325 12.1608 0.00520368 11.9365 0.00637421C11.4803 0.00637421 11.0235 0.0151552 10.5668 0.0157405C10.4689 0.0157405 10.3704 0.0192525 10.2755 0.0198378C9.8892 0.0198378 9.50293 0.035639 9.11666 0.044418C8.88362 0.0502707 8.64533 0.0602182 8.40996 0.0643151C8.28586 0.0643151 8.1606 0.0643158 8.03709 0.0760212C7.78482 0.0959203 7.53139 0.0959213 7.2797 0.109968C7.12764 0.118161 6.97441 0.126357 6.82177 0.129868C6.73496 0.129868 6.64699 0.135133 6.56076 0.142157C6.3516 0.158544 6.14245 0.165568 5.93387 0.179029C5.78181 0.188978 5.62917 0.197173 5.47711 0.209464C5.23358 0.229363 4.99005 0.248092 4.7471 0.267991C4.55193 0.286134 4.35617 0.304277 4.16158 0.326517C3.86445 0.361633 3.56848 0.39909 3.27427 0.454105C2.9315 0.512355 2.59915 0.621016 2.28791 0.776588C1.90792 0.967738 1.56671 1.22834 1.28175 1.54504C0.982292 1.87854 0.75213 2.26873 0.604754 2.69275C0.465511 3.096 0.396181 3.51622 0.329763 3.93645C0.25985 4.37774 0.209746 4.82137 0.167798 5.26676C0.140415 5.55939 0.117693 5.85203 0.0943889 6.14466C0.0774932 6.35419 0.0670064 6.5643 0.0553542 6.77382C0.0390412 7.05182 0.0238934 7.32983 0.0163195 7.60783C0.0075804 7.95899 0.00117203 8.31015 0.00117203 8.66131C0.00117203 8.71164 0.00117203 8.76198 0.00117203 8.81231V8.71574C-0.00211548 8.6939 0.00155462 8.67157 0.0116586 8.65195C0.0174846 8.77485 0.0116586 8.89717 0.0116586 9.01949C-0.00232405 9.39172 0.0116587 9.76337 0.0163195 10.1356C0.0163195 10.1596 0.0163195 10.1836 0.0163195 10.2076C0.00626161 10.1882 0.00259067 10.166 0.005833 10.1444V10.049C0.005833 10.0993 0.005833 10.1491 0.005833 10.1994C0.0134069 10.5874 0.0110764 10.9755 0.0285547 11.3635C0.0349634 11.5168 0.0431198 11.6702 0.0466154 11.8235C0.0466154 11.9177 0.0524413 12.012 0.0600152 12.1062C0.0839021 12.3988 0.0955543 12.6961 0.118276 12.9911C0.134589 13.1767 0.145659 13.3628 0.163719 13.5477C0.195763 13.879 0.231302 14.2102 0.27558 14.5427C0.329679 14.9689 0.405518 15.392 0.502798 15.8104C0.671667 16.5511 1.08449 17.2128 1.67442 17.6885C2.11615 18.0478 2.64095 18.2893 3.20027 18.3908C3.44963 18.4382 3.70015 18.4739 3.95067 18.5078C4.2012 18.5418 4.44473 18.5664 4.69234 18.5874C4.88343 18.605 5.07511 18.6173 5.2662 18.6337C5.54644 18.6571 5.82726 18.6729 6.10807 18.6922C6.34461 18.7098 6.58232 18.7197 6.82002 18.7314C7.11366 18.7455 7.40768 18.7587 7.70209 18.7712C7.9398 18.7818 8.1775 18.7888 8.4152 18.7976C8.70534 18.8077 8.99548 18.8163 9.28562 18.8233C9.64334 18.8321 10.0016 18.835 10.36 18.8368C10.7369 18.8368 11.1173 18.8461 11.492 18.845V18.8403C11.6027 18.8333 11.7134 18.8403 11.824 18.8403C11.9114 18.8403 11.9988 18.8403 12.0862 18.8444H12.0979C12.1193 18.8416 12.1412 18.8442 12.1614 18.852H14.6532C14.6669 18.8453 14.6822 18.8424 14.6975 18.8438L15.2713 18.8374C15.28 18.8379 15.2885 18.8391 15.297 18.8409C15.2973 18.8424 15.2973 18.844 15.297 18.8455C15.6227 18.8502 15.9478 18.8368 16.2734 18.8385C16.38 18.8385 16.4872 18.8356 16.5939 18.8344C16.9959 18.8297 17.3973 18.8344 17.7993 18.8139C17.921 18.8087 18.0434 18.8087 18.1652 18.804C18.4401 18.7935 18.7149 18.7841 18.9895 18.7759C19.1573 18.7712 19.3251 18.7619 19.4935 18.7566C19.6001 18.7566 19.7073 18.7566 19.8134 18.7455C20.0353 18.7273 20.2579 18.7209 20.4799 18.7086C20.5841 18.7027 20.689 18.6992 20.7933 18.6916C21.0782 18.6706 21.3631 18.6542 21.648 18.6331C21.8758 18.6144 22.1042 18.5986 22.332 18.5746C22.6815 18.54 23.0264 18.502 23.3708 18.4458C23.639 18.4092 23.9036 18.3491 24.1614 18.2661C24.7332 18.0685 25.2419 17.7207 25.6348 17.2589C25.9788 16.8614 26.2245 16.388 26.352 15.8771C26.4857 15.312 26.583 14.7388 26.6433 14.1611C26.6829 13.8281 26.7138 13.4944 26.7429 13.1603C26.7715 12.8378 26.7913 12.5165 26.8099 12.1905C26.8245 11.9324 26.8396 11.6743 26.8425 11.4156C26.8466 11.1306 26.8536 10.8455 26.8565 10.5599C26.8565 10.3668 26.8565 10.1736 26.8565 9.9805C26.8526 9.95887 26.8548 9.93655 26.8629 9.91612V9.07275C26.852 9.04878 26.8476 9.02233 26.8501 8.99609ZM10.7363 13.498V5.40196C10.7385 5.39963 10.7411 5.39766 10.7439 5.3961C10.7448 5.39552 10.7458 5.39521 10.7468 5.39521C10.7478 5.39521 10.7489 5.39552 10.7497 5.3961C10.7599 5.39999 10.7698 5.40448 10.7794 5.40956L17.7253 9.45084L10.7363 13.498Z" fill="#BE0412"/>
</g>
<defs>
<clipPath id="clip0_359_189">
<rect width="26.86" height="18.8491" fill="white"/>
</clipPath>
</defs>
</svg>
