<svg width="51" height="50" viewBox="0 0 51 50" fill="none" xmlns="http://www.w3.org/2000/svg">
<g clip-path="url(#clip0_133_118)">
<path fill-rule="evenodd" clip-rule="evenodd" d="M25.8713 46.875C31.7028 46.875 37.2955 44.5703 41.419 40.468C45.5425 36.3656 47.8591 30.8016 47.8591 25C47.8591 19.1984 45.5425 13.6344 41.419 9.53204C37.2955 5.42969 31.7028 3.125 25.8713 3.125C20.0398 3.125 14.4471 5.42969 10.3236 9.53204C6.2001 13.6344 3.88354 19.1984 3.88354 25C3.88354 30.8016 6.2001 36.3656 10.3236 40.468C14.4471 44.5703 20.0398 46.875 25.8713 46.875ZM25.8713 2.98023e-06C32.5359 2.98023e-06 38.9275 2.63392 43.6401 7.32233C48.3527 12.0107 51.0002 18.3696 51.0002 25C51.0002 31.6304 48.3527 37.9893 43.6401 42.6777C38.9275 47.3661 32.5359 50 25.8713 50C19.2067 50 12.8151 47.3661 8.10251 42.6777C3.38993 37.9893 0.742432 31.6304 0.742432 25C0.742432 18.3696 3.38993 12.0107 8.10251 7.32233C12.8151 2.63392 19.2067 2.98023e-06 25.8713 2.98023e-06ZM14.8774 23.4375C14.4609 23.4375 14.0614 23.6021 13.7669 23.8951C13.4723 24.1882 13.3069 24.5856 13.3069 25C13.3069 25.4144 13.4723 25.8118 13.7669 26.1049C14.0614 26.3979 14.4609 26.5625 14.8774 26.5625H33.0739L26.3299 33.2688C26.035 33.5621 25.8693 33.9601 25.8693 34.375C25.8693 34.7899 26.035 35.1879 26.3299 35.4813C26.6248 35.7746 27.0248 35.9395 27.4419 35.9395C27.8589 35.9395 28.2589 35.7746 28.5538 35.4813L37.9771 26.1063C38.1234 25.9611 38.2394 25.7887 38.3186 25.5989C38.3978 25.409 38.4385 25.2055 38.4385 25C38.4385 24.7945 38.3978 24.591 38.3186 24.4011C38.2394 24.2113 38.1234 24.0389 37.9771 23.8938L28.5538 14.5188C28.2589 14.2254 27.8589 14.0605 27.4419 14.0605C27.0248 14.0605 26.6248 14.2254 26.3299 14.5188C26.035 14.8121 25.8693 15.2101 25.8693 15.625C25.8693 16.0399 26.035 16.4379 26.3299 16.7313L33.0739 23.4375H14.8774Z" fill="#BE0412"/>
</g>
<defs>
<clipPath id="clip0_133_118">
<rect width="50" height="50.2577" fill="white" transform="translate(0.742432 50) rotate(-90)"/>
</clipPath>
</defs>
</svg>
