<svg width="18" height="14" viewBox="0 0 18 14" fill="none" xmlns="http://www.w3.org/2000/svg">
<path d="M16.137 13.5002H1.86298C1.83711 13.4873 1.80998 13.4773 1.78205 13.4702C1.50506 13.4276 1.23935 13.3283 1.00088 13.1781C0.762411 13.0279 0.556109 12.8301 0.394374 12.5963C0.194022 12.2964 0.0594905 11.9557 0 11.5977V1.90281C0.0119786 1.87609 0.0218206 1.84843 0.0294306 1.82009C0.242805 0.701104 1.06687 0.00173945 2.18231 0.000235439C6.72646 0.000235439 11.2711 0.000235439 15.8162 0.000235439C15.9972 -0.00234716 16.178 0.0163246 16.3548 0.0558838C16.8267 0.161372 17.2484 0.430494 17.5483 0.817582C17.8482 1.20467 18.0078 1.68588 18 2.17955C18 3.60836 18 5.03717 18 6.46748C18 8.08279 18 9.6981 18 11.3134C18.007 11.6678 17.9275 12.0183 17.7687 12.3334C17.6099 12.6485 17.3769 12.9182 17.0906 13.1182C16.8023 13.3122 16.4775 13.4423 16.137 13.5002ZM16.5947 2.60067C16.5078 2.66384 16.4475 2.70445 16.396 2.75107C13.9944 4.57594 11.5939 6.3998 9.19424 8.22266C9.16974 8.24944 9.14012 8.27079 9.10721 8.28538C9.0743 8.29997 9.03881 8.3075 9.00294 8.3075C8.96707 8.3075 8.93158 8.29997 8.89867 8.28538C8.86577 8.27079 8.83614 8.24944 8.81164 8.22266C6.41792 6.39378 4.01782 4.56942 1.61135 2.74957C1.55248 2.70445 1.49215 2.66233 1.40827 2.59917V11.2126C1.40827 11.7947 1.67462 12.0639 2.25 12.0639H15.7485C16.3371 12.0639 16.5947 11.7962 16.5947 11.1991V2.60067ZM2.24558 1.44108L9.00147 6.57276L15.7559 1.44108H2.24558Z" fill="#BE0412"/>
</svg>
