<svg width="51" height="50" viewBox="0 0 51 50" fill="none" xmlns="http://www.w3.org/2000/svg">
<g clip-path="url(#clip0_133_116)">
<path fill-rule="evenodd" clip-rule="evenodd" d="M25.1287 3.125C19.2972 3.125 13.7045 5.42968 9.58101 9.53204C5.45751 13.6344 3.14095 19.1984 3.14095 25C3.14095 30.8016 5.45751 36.3656 9.58101 40.468C13.7045 44.5703 19.2972 46.875 25.1287 46.875C30.9602 46.875 36.5529 44.5703 40.6764 40.468C44.7999 36.3656 47.1165 30.8016 47.1165 25C47.1165 19.1984 44.7999 13.6344 40.6764 9.53204C36.5529 5.42968 30.9602 3.125 25.1287 3.125ZM25.1287 50C18.4641 50 12.0725 47.3661 7.35991 42.6777C2.64733 37.9893 -0.000164032 31.6304 -0.000164032 25C-0.000164032 18.3696 2.64733 12.0107 7.35991 7.32233C12.0725 2.63392 18.4641 0 25.1287 0C31.7933 0 38.1849 2.63392 42.8975 7.32233C47.6101 12.0107 50.2576 18.3696 50.2576 25C50.2576 31.6304 47.6101 37.9893 42.8975 42.6777C38.1849 47.3661 31.7933 50 25.1287 50ZM36.1226 26.5625C36.5391 26.5625 36.9386 26.3979 37.2331 26.1049C37.5277 25.8118 37.6931 25.4144 37.6931 25C37.6931 24.5856 37.5277 24.1882 37.2331 23.8951C36.9386 23.6021 36.5391 23.4375 36.1226 23.4375L17.9261 23.4375L24.6701 16.7313C24.965 16.4379 25.1307 16.0399 25.1307 15.625C25.1307 15.2101 24.965 14.8121 24.6701 14.5187C24.3752 14.2254 23.9752 14.0605 23.5581 14.0605C23.1411 14.0605 22.7411 14.2254 22.4462 14.5187L13.0229 23.8937C12.8766 24.0389 12.7606 24.2113 12.6814 24.4011C12.6022 24.591 12.5615 24.7945 12.5615 25C12.5615 25.2055 12.6022 25.409 12.6814 25.5989C12.7606 25.7887 12.8766 25.9611 13.0229 26.1063L22.4462 35.4813C22.7411 35.7746 23.1411 35.9395 23.5581 35.9395C23.9752 35.9395 24.3752 35.7746 24.6701 35.4813C24.965 35.1879 25.1307 34.7899 25.1307 34.375C25.1307 33.9601 24.965 33.5621 24.6701 33.2687L17.9261 26.5625L36.1226 26.5625Z" fill="#BE0412"/>
</g>
<defs>
<clipPath id="clip0_133_116">
<rect width="50" height="50.2577" fill="white" transform="translate(50.2576) rotate(90)"/>
</clipPath>
</defs>
</svg>
