<svg width="17" height="17" viewBox="0 0 17 17" fill="none" xmlns="http://www.w3.org/2000/svg">
<g clip-path="url(#clip0_517_13)">
<path d="M0 4.30716C0.055056 4.14889 0.119079 3.9939 0.191755 3.84295C0.67238 2.98725 1.25646 2.19432 1.93077 1.48212C2.33194 1.05819 2.75575 0.65639 3.20031 0.27849C3.30847 0.175425 3.43841 0.0981568 3.58047 0.0524429C3.72253 0.00672913 3.87304 -0.00625304 4.0208 0.0144614C4.16855 0.0351759 4.30975 0.0890545 4.43386 0.172084C4.55798 0.255114 4.66182 0.365154 4.73765 0.494014C5.54927 1.56813 6.25148 2.72116 6.83372 3.93579C6.91527 4.12426 6.98376 4.31814 7.0387 4.51606C7.08947 4.65934 7.10029 4.8138 7.06999 4.9628C7.0397 5.11179 6.96944 5.24967 6.86679 5.36158C6.66181 5.59368 6.43368 5.79595 6.20556 6.00484C6.05348 6.1441 5.89809 6.28336 5.73609 6.40605C5.71111 6.42018 5.68916 6.43912 5.67148 6.46178C5.6538 6.48443 5.64076 6.51036 5.63308 6.53807C5.6254 6.56579 5.62325 6.59475 5.62674 6.62331C5.63024 6.65186 5.63931 6.67944 5.65344 6.70447C6.04026 7.7725 6.65484 8.743 7.45428 9.5482C8.25371 10.3534 9.21874 10.9739 10.282 11.3665C10.3408 11.4021 10.4113 11.4131 10.4782 11.3969C10.545 11.3808 10.6028 11.3389 10.639 11.2802C10.8936 10.9487 11.1647 10.6602 11.4391 10.3585C11.5847 10.1645 11.7943 10.0287 12.0304 9.97524C12.2666 9.9218 12.514 9.9542 12.7285 10.0667C13.36 10.3684 13.9914 10.6768 14.5932 11.0316C15.1949 11.3864 15.79 11.8041 16.3851 12.1987C16.6513 12.3682 16.851 12.6247 16.9504 12.9249C16.9942 13.0321 17.0117 13.1483 17.0013 13.2637C16.991 13.3791 16.9531 13.4904 16.8909 13.588C16.7373 13.8324 16.5661 14.0651 16.3785 14.2843C15.4851 15.236 14.4754 16.0705 13.3732 16.7679C13.1757 16.8844 12.9566 16.9594 12.7293 16.9885C12.502 17.0175 12.2711 17 12.0508 16.937C10.5218 16.6044 9.07066 15.9809 7.77596 15.1C5.1402 13.3924 2.95553 11.0705 1.4084 8.33252C0.806168 7.29537 0.377315 6.16634 0.138856 4.99021C0.119019 4.87748 0.0991814 4.76805 0.085957 4.65863C0.0727325 4.54921 0.0595097 4.43648 0.0462853 4.32706L0 4.30716ZM3.83839 1.1837L3.78219 1.21685C2.79954 2.10684 1.93905 3.12372 1.22326 4.24085C1.18794 4.30555 1.17514 4.38023 1.18689 4.45305C1.3363 5.45403 1.6585 6.42124 2.13905 7.31126C3.70992 10.3115 6.08913 12.8091 9.00583 14.5198C10.0827 15.1915 11.2817 15.6423 12.5335 15.8461C12.6244 15.8596 12.7172 15.8396 12.7946 15.7897C13.3236 15.4084 13.8658 15.037 14.365 14.6159C14.8643 14.1948 15.3569 13.6941 15.8594 13.2167L15.6313 13.0343C14.642 12.32 13.5922 11.6943 12.4938 11.1642C12.4652 11.1438 12.4327 11.1296 12.3984 11.1225C12.3641 11.1155 12.3286 11.1157 12.2944 11.1232C12.2601 11.1307 12.2278 11.1453 12.1995 11.166C12.1712 11.1868 12.1476 11.2133 12.1301 11.2438C11.7797 11.6516 11.4193 12.0462 11.0556 12.4408C10.9828 12.5196 10.8888 12.5756 10.785 12.6021C10.6812 12.6286 10.5719 12.6244 10.4704 12.59C9.5338 12.3441 8.65131 11.9246 7.86853 11.3532C6.29269 10.2555 5.11502 8.67408 4.51283 6.84705C4.42119 6.65188 4.40044 6.43072 4.45417 6.22184C4.5079 6.01295 4.63273 5.82946 4.80708 5.7031C5.16083 5.41795 5.49144 5.10626 5.83528 4.80784C5.85451 4.79574 5.87112 4.77987 5.88409 4.76118C5.89706 4.74249 5.90613 4.72136 5.91077 4.69907C5.9154 4.67677 5.91549 4.65377 5.91104 4.63144C5.90659 4.6091 5.89769 4.5879 5.88487 4.56911C5.34695 3.43281 4.70619 2.34842 3.97063 1.32959C3.92893 1.27884 3.8848 1.23015 3.83839 1.1837Z" fill="#BE0412"/>
<path d="M9.09169 1.69444V0.593605C12.7912 0.494131 16.4312 3.63749 16.4312 7.93806H15.3105C15.2932 6.289 14.632 4.71247 13.4686 3.54697C12.3053 2.38146 10.7326 1.71992 9.08838 1.70439L9.09169 1.69444Z" fill="#BE0412"/>
<path d="M9.0918 4.5325V3.42503C11.2937 3.31892 13.6212 5.2686 13.6013 7.93117H12.4839C12.4752 7.0319 12.115 6.17195 11.4806 5.53635C10.8462 4.90075 9.98846 4.54028 9.0918 4.5325Z" fill="#BE0412"/>
</g>
<defs>
<clipPath id="clip0_517_13">
<rect width="17" height="17" fill="white"/>
</clipPath>
</defs>
</svg>
