<svg width="18" height="18" viewBox="0 0 18 18" fill="none" xmlns="http://www.w3.org/2000/svg">
<g clip-path="url(#clip0_513_106)">
<path d="M0 18.0002C0.0457592 17.8332 0.0887451 17.6731 0.138664 17.5144C0.508435 16.1562 0.88098 14.7989 1.2563 13.4426C1.26601 13.4066 1.26206 13.3682 1.2452 13.3349C0.627451 12.2634 0.249081 11.0718 0.135891 9.8415C-0.119251 6.96641 0.786226 4.50264 2.86064 2.4847C4.12835 1.24748 5.74766 0.428297 7.49896 0.138253C9.36835 -0.187242 11.2933 0.0866534 12.9962 0.920442C14.6991 1.75423 16.092 3.10482 16.974 4.77746C17.856 6.4501 18.1815 8.35835 17.9036 10.227C17.6257 12.0957 16.7588 13.8283 15.4278 15.1748C14.0725 16.5512 12.3054 17.4531 10.3916 17.7453C8.4778 18.0374 6.52042 17.7041 4.81303 16.7953C4.7938 16.7845 4.77259 16.7778 4.75067 16.7754C4.72874 16.773 4.70656 16.7751 4.68546 16.7815L0.0679454 17.9878L0 18.0002ZM2.15346 15.8815L2.21863 15.8677L4.66189 15.23C4.75708 15.189 4.85913 15.1661 4.96279 15.1624C5.06346 15.1945 5.15743 15.2445 5.24012 15.3101C6.64478 16.1429 8.28738 16.488 9.91033 16.2915C11.1389 16.1521 12.3118 15.7043 13.3187 14.9899C14.4439 14.2018 15.3277 13.119 15.8723 11.8614C16.4169 10.6038 16.6009 9.22065 16.4039 7.86532C16.2069 6.50999 15.6366 5.23547 14.7562 4.1831C13.8759 3.13074 12.7199 2.34167 11.4165 1.9034C10.1131 1.46513 8.71317 1.39481 7.37205 1.70021C6.03093 2.00562 4.801 2.67483 3.81868 3.63361C2.83636 4.5924 2.14003 5.80329 1.80693 7.13199C1.47384 8.46068 1.51698 9.85525 1.93159 11.161C2.14982 11.8461 2.46498 12.4968 2.86758 13.0934C2.87958 13.1107 2.88744 13.1305 2.89057 13.1514C2.89369 13.1722 2.89199 13.1934 2.8856 13.2135C2.65265 14.0554 2.42154 14.8974 2.19228 15.7394C2.17703 15.7835 2.16593 15.8291 2.15346 15.8815Z" fill="#BE0412"/>
<path d="M6.10692 4.81332H6.38425C6.43555 4.81111 6.48656 4.82199 6.53243 4.84494C6.5783 4.8679 6.61751 4.90215 6.64633 4.94445C6.70691 5.03127 6.75892 5.12372 6.80163 5.2205C7.01795 5.73396 7.21762 6.25569 7.45058 6.76501C7.5049 6.86276 7.53141 6.97341 7.52726 7.08504C7.5231 7.19667 7.48844 7.30507 7.42701 7.39855C7.28978 7.61082 7.13136 7.80874 6.95416 7.9893C6.7531 8.206 6.73785 8.2833 6.89038 8.53313C7.42237 9.44819 8.18772 10.2072 9.109 10.7333C9.38633 10.8851 9.67614 11.0093 9.96317 11.1473C10.0318 11.1884 10.1138 11.201 10.1916 11.1824C10.2694 11.1638 10.3368 11.1155 10.3792 11.048C10.6204 10.7544 10.8594 10.4586 11.0961 10.1605C11.1315 10.0986 11.1884 10.0519 11.2561 10.029C11.3238 10.0061 11.3976 10.0087 11.4635 10.0362C11.6311 10.0941 11.795 10.1618 11.9544 10.2391C12.412 10.4558 12.864 10.685 13.3244 10.8961C13.41 10.9266 13.4823 10.9859 13.5287 11.0638C13.575 11.1417 13.5925 11.2332 13.5782 11.3226C13.5593 11.6058 13.4995 11.8847 13.4007 12.1508C13.3416 12.2931 13.2499 12.4198 13.133 12.5207C12.785 12.8623 12.343 13.0934 11.8629 13.1846C11.3509 13.2675 10.8262 13.22 10.3376 13.0466C9.69723 12.8424 9.0797 12.5732 8.49472 12.2433C7.71588 11.7726 7.01202 11.1887 6.40644 10.511C5.88312 9.94782 5.41852 9.33322 5.0198 8.67667C4.76872 8.27459 4.59826 7.8279 4.51783 7.36128C4.4477 6.9919 4.46307 6.61147 4.56279 6.24889C4.6625 5.88632 4.84393 5.55113 5.09329 5.26881C5.1543 5.19841 5.21809 5.13078 5.28326 5.06315C5.36131 4.97872 5.45667 4.91198 5.5629 4.86745C5.66912 4.82292 5.78372 4.80164 5.89893 4.80504H6.10554L6.10692 4.81332Z" fill="#BE0412"/>
</g>
<defs>
<clipPath id="clip0_513_106">
<rect width="18" height="18" fill="white"/>
</clipPath>
</defs>
</svg>
