<svg width="24" height="27" viewBox="0 0 24 27" fill="none" xmlns="http://www.w3.org/2000/svg">
<g clip-path="url(#clip0_184_6)">
<path d="M16.355 19.6046C15.2945 20.4955 14.0821 21.1502 12.7875 21.531C11.4929 21.9118 10.1417 22.0113 8.81151 21.8236C7.48135 21.636 6.19851 21.1649 5.03679 20.4375C3.87507 19.7101 2.85738 18.7408 2.04225 17.5853C0.565306 15.4635 -0.15253 12.8328 0.0217554 10.1809C0.19604 7.52887 1.25063 5.0353 2.99012 3.16218C4.7287 1.30494 7.02657 0.190325 9.46182 0.0229853C11.8971 -0.144355 14.3062 0.646813 16.247 2.25122C17.3044 3.14146 18.1898 4.24892 18.8526 5.51036C19.5154 6.7718 19.9426 8.16251 20.1098 9.60307C20.277 11.0436 20.181 12.5058 19.8273 13.9061C19.4735 15.3064 18.8689 16.6174 18.0479 17.7642C18.1502 17.8208 18.2463 17.8898 18.3342 17.9698C20.0694 19.8452 21.8015 21.722 23.5304 23.6001C23.9001 23.999 24.0858 24.4535 23.9456 25.021C23.8924 25.2404 23.7895 25.4418 23.6461 25.6069C23.5027 25.772 23.3234 25.8955 23.1247 25.9661C22.9259 26.0366 22.714 26.052 22.5084 26.0109C22.3028 25.9697 22.1099 25.8733 21.9475 25.7304C21.847 25.642 21.7579 25.5413 21.6669 25.4446C19.9569 23.5898 18.2476 21.7343 16.5389 19.8781C16.4707 19.7927 16.4092 19.7012 16.355 19.6046ZM2.51618 10.968C2.5192 13.1474 3.31944 15.2364 4.74119 16.7762C6.16294 18.3161 8.08997 19.181 10.0991 19.181C11.0954 19.1829 12.0823 18.9714 13.0031 18.5588C13.9238 18.1461 14.7605 17.5403 15.465 16.7761C16.1695 16.0119 16.7279 15.1044 17.1084 14.1056C17.4889 13.1068 17.6838 12.0364 17.6821 10.9557C17.6821 8.77703 16.8852 6.68738 15.4664 5.1453C14.0476 3.60322 12.1228 2.73471 10.1143 2.73035C8.10105 2.73361 6.17105 3.60214 4.74694 5.14573C3.32284 6.68933 2.5207 8.78218 2.51618 10.966V10.968Z" fill="white"/>
</g>
<defs>
<clipPath id="clip0_184_6">
<rect width="24" height="26.0393" fill="white"/>
</clipPath>
</defs>
</svg>
