<svg width="41" height="30" viewBox="0 0 41 30" fill="none" xmlns="http://www.w3.org/2000/svg">
<g clip-path="url(#clip0_727_2)">
<path d="M38.1812 0L38.625 0.146826C39.1792 0.337525 39.6486 0.71473 39.9518 1.213C40.255 1.71127 40.373 2.29916 40.2851 2.87468C40.1972 3.45021 39.9091 3.97705 39.4708 4.36381C39.0325 4.75057 38.4715 4.97284 37.8853 4.99206C37.7254 4.99206 37.5694 4.99206 37.4135 4.99206C26.0019 4.99206 14.5943 4.99206 3.18266 4.99206C1.58327 4.99206 0.49569 4.5 -0.0161133 2.94841V2.03175C0.132128 1.69927 0.300371 1.37594 0.487697 1.06349C0.868915 0.534577 1.42737 0.157584 2.06309 0H38.1812Z" fill="#D10427"/>
<path d="M0 14.5239C0.05198 14.4048 0.103966 14.2897 0.143951 14.1707C0.311908 13.6853 0.627476 13.2635 1.04714 12.9636C1.46681 12.6636 1.9699 12.5003 2.48704 12.4961C3.35471 12.4961 4.21838 12.4961 5.08604 12.4961H37.6255C38.993 12.4961 39.9966 13.258 40.2605 14.4802C40.3335 14.8313 40.3294 15.1939 40.2485 15.5433C40.1676 15.8926 40.0118 16.2206 39.7918 16.5049C39.5717 16.7892 39.2926 17.0231 38.9733 17.1907C38.654 17.3583 38.302 17.4557 37.9414 17.4763C37.7695 17.4763 37.6015 17.4763 37.4296 17.4763C26.018 17.4763 14.6064 17.4763 3.19877 17.4763C1.59939 17.4763 0.507805 16.9802 0 15.4286V14.5239Z" fill="#D10427"/>
<path d="M0 27.0161C0.05198 26.897 0.103966 26.7819 0.143951 26.6629C0.311908 26.1775 0.627476 25.7557 1.04714 25.4558C1.46681 25.1558 1.9699 24.9925 2.48704 24.9883C3.35471 24.9883 4.21838 24.9883 5.08604 24.9883H37.6255C38.993 24.9883 39.9966 25.7502 40.2605 26.9724C40.3335 27.3235 40.3294 27.6861 40.2485 28.0355C40.1676 28.3848 40.0118 28.7128 39.7918 28.9971C39.5717 29.2814 39.2926 29.5153 38.9733 29.6829C38.654 29.8505 38.302 29.9479 37.9414 29.9684C37.7695 29.9684 37.6015 29.9684 37.4296 29.9684C26.018 29.9684 14.6077 29.9684 3.19877 29.9684C1.59939 29.9684 0.507805 29.4724 0 27.9208V27.0161Z" fill="#D10427"/>
</g>
<defs>
<clipPath id="clip0_727_2">
<rect width="40.3125" height="30" fill="white"/>
</clipPath>
</defs>
</svg>
