<svg width="70" height="70" viewBox="0 0 70 70" fill="none" xmlns="http://www.w3.org/2000/svg">
<circle cx="35" cy="35" r="35" fill="#A20C19"/>
<path d="M41.25 27.0001C39.9726 26.9957 38.7068 27.2432 37.5252 27.7285C36.3436 28.2138 35.2692 28.9274 34.3636 29.8283C33.458 30.7293 32.739 31.7999 32.2476 32.9791C31.7562 34.1582 31.5022 35.4226 31.5 36.7001V46.5001C31.5 46.8979 31.658 47.2794 31.9393 47.5607C32.2206 47.842 32.6022 48.0001 33 48.0001H36.5C36.8978 48.0001 37.2794 47.842 37.5607 47.5607C37.842 47.2794 38 46.8979 38 46.5001V36.7001C37.9997 36.2457 38.0951 35.7964 38.2801 35.3814C38.465 34.9665 38.7353 34.5951 39.0734 34.2916C39.4115 33.9881 39.8098 33.7593 40.2423 33.62C40.6747 33.4808 41.1317 33.4342 41.5833 33.4834C42.3933 33.5854 43.1377 33.9812 43.6754 34.5956C44.213 35.21 44.5064 36.0003 44.5 36.8167V46.5001C44.5 46.8979 44.658 47.2794 44.9393 47.5607C45.2206 47.842 45.6022 48.0001 46 48.0001H49.5C49.8978 48.0001 50.2794 47.842 50.5607 47.5607C50.842 47.2794 51 46.8979 51 46.5001V36.7001C50.9978 35.4226 50.7438 34.1582 50.2524 32.9791C49.761 31.7999 49.042 30.7293 48.1364 29.8283C47.2308 28.9274 46.1564 28.2138 44.9748 27.7285C43.7932 27.2432 42.5274 26.9957 41.25 27.0001Z" fill="white"/>
<path d="M27 28.5H22.5C21.6716 28.5 21 29.1716 21 30V46.5C21 47.3284 21.6716 48 22.5 48H27C27.8284 48 28.5 47.3284 28.5 46.5V30C28.5 29.1716 27.8284 28.5 27 28.5Z" fill="white"/>
<path d="M24.75 25.5C26.8211 25.5 28.5 23.8211 28.5 21.75C28.5 19.6789 26.8211 18 24.75 18C22.6789 18 21 19.6789 21 21.75C21 23.8211 22.6789 25.5 24.75 25.5Z" fill="white"/>
</svg>
