<svg width="70" height="70" viewBox="0 0 70 70" fill="none" xmlns="http://www.w3.org/2000/svg">
<circle cx="35" cy="35" r="35" fill="#A20C19"/>
<g clip-path="url(#clip0_38_23)">
<path d="M35.5 14.5C25.0076 14.5 16.5 23.0076 16.5 33.5C16.5 43.9924 25.0076 52.5 35.5 52.5C45.9924 52.5 54.5 43.9924 54.5 33.5C54.5 23.0076 45.9924 14.5 35.5 14.5ZM44.631 28.8221C44.6437 29.0214 44.6437 29.2292 44.6437 29.4328C44.6437 35.6587 39.9022 42.8304 31.2377 42.8304C28.5658 42.8304 26.0891 42.0542 24.0025 40.7183C24.3842 40.7607 24.7489 40.7777 25.1391 40.7777C27.3444 40.7777 29.3717 40.0312 30.9875 38.7674C28.9179 38.725 27.179 37.3679 26.5853 35.5018C27.3105 35.6078 27.9636 35.6078 28.71 35.417C27.6444 35.2005 26.6865 34.6217 25.9992 33.779C25.3119 32.9363 24.9376 31.8816 24.9397 30.7942V30.7348C25.5632 31.0868 26.2969 31.3031 27.0645 31.3328C26.4192 30.9027 25.89 30.3201 25.5238 29.6365C25.1576 28.9529 24.9657 28.1896 24.9652 27.4141C24.9652 26.5362 25.1942 25.7346 25.6056 25.0391C26.7884 26.4952 28.2644 27.6861 29.9377 28.5344C31.6109 29.3827 33.444 29.8694 35.3176 29.9629C34.6518 26.7609 37.0437 24.1696 39.9192 24.1696C41.2763 24.1696 42.4978 24.7379 43.3587 25.654C44.4232 25.4547 45.4411 25.056 46.3487 24.5217C45.9967 25.6116 45.2587 26.5319 44.279 27.1129C45.229 27.0112 46.1451 26.7482 46.9933 26.3792C46.3529 27.3208 45.5513 28.1562 44.631 28.8221Z" fill="white"/>
</g>
<defs>
<clipPath id="clip0_38_23">
<rect width="40" height="40" fill="white" transform="translate(15 15)"/>
</clipPath>
</defs>
</svg>
