<svg width="70" height="70" viewBox="0 0 70 70" fill="none" xmlns="http://www.w3.org/2000/svg">
<circle cx="35" cy="35" r="35" fill="#A20C19"/>
<g clip-path="url(#clip0_38_21)">
<path d="M55.0001 35.1226C55.0001 24.0076 46.0451 14.9976 35.0001 14.9976C23.9501 15.0001 14.9951 24.0076 14.9951 35.1251C14.9951 45.1676 22.3101 53.4926 31.8701 55.0026V40.9401H26.7951V35.1251H31.8751V30.6876C31.8751 25.6451 34.8626 22.8601 39.4301 22.8601C41.6201 22.8601 43.9076 23.2526 43.9076 23.2526V28.2026H41.3851C38.9026 28.2026 38.1276 29.7551 38.1276 31.3476V35.1226H43.6726L42.7876 40.9376H38.1251V55.0001C47.6851 53.4901 55.0001 45.1651 55.0001 35.1226Z" fill="white"/>
</g>
<defs>
<clipPath id="clip0_38_21">
<rect width="40" height="40" fill="white" transform="translate(15 15)"/>
</clipPath>
</defs>
</svg>
