<svg width="70" height="70" viewBox="0 0 70 70" fill="none" xmlns="http://www.w3.org/2000/svg">
<circle cx="35" cy="35" r="35" fill="#A20C19"/>
<g clip-path="url(#clip0_38_22)">
<path fill-rule="evenodd" clip-rule="evenodd" d="M26.4211 14.7865C28.5538 14.6883 29.2338 14.6665 34.6665 14.6665C40.0992 14.6665 40.7792 14.6901 42.9101 14.7865C45.0411 14.8829 46.4956 15.2229 47.7683 15.7156C49.101 16.2192 50.3101 17.0065 51.3101 18.0247C52.3283 19.0229 53.1138 20.2301 53.6156 21.5647C54.1101 22.8374 54.4483 24.292 54.5465 26.4192C54.6447 28.5556 54.6665 29.2356 54.6665 34.6665C54.6665 40.0992 54.6429 40.7792 54.5465 42.912C54.4501 45.0392 54.1101 46.4938 53.6156 47.7665C53.1138 49.1012 52.327 50.3105 51.3101 51.3101C50.3101 52.3283 49.101 53.1138 47.7683 53.6156C46.4956 54.1101 45.041 54.4483 42.9138 54.5465C40.7792 54.6447 40.0992 54.6665 34.6665 54.6665C29.2338 54.6665 28.5538 54.6429 26.4211 54.5465C24.2938 54.4501 22.8392 54.1101 21.5665 53.6156C20.2318 53.1137 19.0225 52.327 18.0229 51.3101C17.0054 50.3114 16.218 49.1027 15.7156 47.7683C15.2229 46.4956 14.8847 45.041 14.7865 42.9138C14.6883 40.7774 14.6665 40.0974 14.6665 34.6665C14.6665 29.2338 14.6901 28.5538 14.7865 26.4229C14.8829 24.292 15.2229 22.8374 15.7156 21.5647C16.2187 20.2303 17.0067 19.0216 18.0247 18.0229C19.0229 17.0056 20.231 16.2182 21.5647 15.7156C22.8374 15.2229 24.292 14.8847 26.4192 14.7865H26.4211ZM42.7483 18.3865C40.6392 18.2901 40.0065 18.2701 34.6665 18.2701C29.3265 18.2701 28.6938 18.2901 26.5847 18.3865C24.6338 18.4756 23.5756 18.801 22.8701 19.0756C21.9374 19.4392 21.2701 19.8701 20.5701 20.5701C19.9066 21.2157 19.3959 22.0016 19.0756 22.8701C18.801 23.5756 18.4756 24.6338 18.3865 26.5847C18.2901 28.6938 18.2701 29.3265 18.2701 34.6665C18.2701 40.0065 18.2901 40.6392 18.3865 42.7483C18.4756 44.6992 18.801 45.7574 19.0756 46.4629C19.3956 47.3301 19.9065 48.1174 20.5701 48.7629C21.2156 49.4265 22.0029 49.9374 22.8701 50.2574C23.5756 50.532 24.6338 50.8574 26.5847 50.9465C28.6938 51.0429 29.3247 51.0629 34.6665 51.0629C40.0083 51.0629 40.6392 51.0429 42.7483 50.9465C44.6992 50.8574 45.7574 50.532 46.4629 50.2574C47.3956 49.8938 48.0629 49.4629 48.7629 48.7629C49.4265 48.1174 49.9374 47.3301 50.2574 46.4629C50.532 45.7574 50.8574 44.6992 50.9465 42.7483C51.0429 40.6392 51.0629 40.0065 51.0629 34.6665C51.0629 29.3265 51.0429 28.6938 50.9465 26.5847C50.8574 24.6338 50.532 23.5756 50.2574 22.8701C49.8938 21.9374 49.4629 21.2701 48.7629 20.5701C48.1173 19.9066 47.3314 19.396 46.4629 19.0756C45.7574 18.801 44.6992 18.4756 42.7483 18.3865ZM32.112 40.832C33.5386 41.4258 35.1272 41.506 36.6064 41.0587C38.0856 40.6115 39.3636 39.6645 40.2222 38.3797C41.0807 37.0948 41.4666 35.5517 41.3139 34.014C41.1611 32.4762 40.4792 31.0392 39.3847 29.9483C38.6869 29.251 37.8433 28.7171 36.9144 28.385C35.9855 28.0528 34.9946 27.9308 34.0129 28.0276C33.0312 28.1245 32.0831 28.4377 31.2371 28.9449C30.391 29.4521 29.6679 30.1406 29.1198 30.9608C28.5717 31.781 28.2123 32.7125 28.0674 33.6883C27.9226 34.664 27.9959 35.6598 28.282 36.6038C28.5682 37.5478 29.0601 38.4167 29.7224 39.1478C30.3846 39.8789 31.2007 40.4541 32.112 40.832ZM27.3974 27.3974C28.352 26.4428 29.4853 25.6856 30.7325 25.169C31.9797 24.6524 33.3165 24.3865 34.6665 24.3865C36.0165 24.3865 37.3533 24.6524 38.6005 25.169C39.8477 25.6856 40.981 26.4428 41.9356 27.3974C42.8902 28.352 43.6474 29.4853 44.164 30.7325C44.6807 31.9797 44.9466 33.3165 44.9466 34.6665C44.9466 36.0165 44.6807 37.3533 44.164 38.6005C43.6474 39.8477 42.8902 40.981 41.9356 41.9356C40.0077 43.8635 37.3929 44.9466 34.6665 44.9466C31.9401 44.9466 29.3253 43.8635 27.3974 41.9356C25.4695 40.0077 24.3865 37.3929 24.3865 34.6665C24.3865 31.9401 25.4695 29.3253 27.3974 27.3974ZM47.2265 25.9174C47.4631 25.6943 47.6524 25.4259 47.7834 25.1283C47.9144 24.8306 47.9843 24.5097 47.9891 24.1846C47.9938 23.8594 47.9333 23.5366 47.811 23.2352C47.6888 22.9339 47.5073 22.6602 47.2773 22.4302C47.0474 22.2003 46.7736 22.0188 46.4723 21.8965C46.171 21.7743 45.8482 21.7137 45.523 21.7185C45.1978 21.7232 44.8769 21.7931 44.5793 21.9241C44.2816 22.0551 44.0133 22.2445 43.7901 22.481C43.3562 22.9411 43.1186 23.5522 43.1278 24.1846C43.137 24.8169 43.3923 25.4208 43.8395 25.868C44.2867 26.3152 44.8906 26.5706 45.523 26.5798C46.1554 26.589 46.7665 26.3514 47.2265 25.9174Z" fill="white"/>
</g>
<defs>
<clipPath id="clip0_38_22">
<rect width="40" height="40" fill="white" transform="translate(15 15)"/>
</clipPath>
</defs>
</svg>
