<svg width="70" height="70" viewBox="0 0 70 70" fill="none" xmlns="http://www.w3.org/2000/svg">
<circle cx="35" cy="35" r="35" fill="#A20C19"/>
<g clip-path="url(#clip0_38_25)">
<path d="M54.1667 25.8448C53.9402 25.0369 53.499 24.3054 52.8901 23.7281C52.2639 23.1331 51.4964 22.7075 50.6601 22.4915C47.5301 21.6665 34.9901 21.6665 34.9901 21.6665C29.7623 21.607 24.5358 21.8686 19.3401 22.4498C18.5037 22.6818 17.7377 23.1169 17.1101 23.7165C16.4934 24.3098 16.0467 25.0415 15.8134 25.8431C15.2529 28.8627 14.9805 31.9287 15.0001 34.9998C14.9801 38.0681 15.2517 41.1331 15.8134 44.1565C16.0417 44.9548 16.4867 45.6831 17.1051 46.2715C17.7234 46.8598 18.4934 47.2848 19.3401 47.5098C22.5117 48.3331 34.9901 48.3331 34.9901 48.3331C40.2245 48.3927 45.4577 48.1311 50.6601 47.5498C51.4964 47.3337 52.2639 46.9081 52.8901 46.3131C53.4988 45.736 53.9395 45.0044 54.1651 44.1965C54.7402 41.1781 55.0199 38.1108 55.0001 35.0381C55.0433 31.9525 54.764 28.8707 54.1667 25.8431V25.8448ZM31.0034 40.7065V29.2948L41.4367 35.0015L31.0034 40.7065Z" fill="white"/>
</g>
<defs>
<clipPath id="clip0_38_25">
<rect width="40" height="40" fill="white" transform="translate(15 15)"/>
</clipPath>
</defs>
</svg>
